  0
SECTION
  2
HEADER
  9
$ACADVER
  1
AC1024
  9
$ACADMAINTVER
 70
     6
  9
$DWGCODEPAGE
  3
ANSI_1252
  9
$INSBASE
 10
0.0
 20
0.0
 30
0.0
  9
$EXTMIN
 10
1.000000000000000E+20
 20
1.000000000000000E+20
 30
1.000000000000000E+20
  9
$EXTMAX
 10
-1.000000000000000E+20
 20
-1.000000000000000E+20
 30
-1.000000000000000E+20
  9
$LIMMIN
 10
0.0
 20
0.0
  9
$LIMMAX
 10
12.0
 20
9.0
  9
$ORTHOMODE
 70
     0
  9
$REGENMODE
 70
     1
  9
$FILLMODE
 70
     1
  9
$QTEXTMODE
 70
     0
  9
$MIRRTEXT
 70
     1
  9
$LTSCALE
 40
1.0
  9
$ATTMODE
 70
     1
  9
$TEXTSIZE
 40
0.2
  9
$TRACEWID
 40
0.05
  9
$TEXTSTYLE
  7
Standard
  9
$CLAYER
  8
0
  9
$CELTYPE
  6
ByLayer
  9
$CECOLOR
 62
   256
  9
$CELTSCALE
 40
1.0
  9
$DISPSILH
 70
     0
  9
$DIMSCALE
 40
1.0
  9
$DIMASZ
 40
0.18
  9
$DIMEXO
 40
0.0625
  9
$DIMDLI
 40
0.38
  9
$DIMRND
 40
0.0
  9
$DIMDLE
 40
0.0
  9
$DIMEXE
 40
0.18
  9
$DIMTP
 40
0.0
  9
$DIMTM
 40
0.0
  9
$DIMTXT
 40
0.18
  9
$DIMCEN
 40
0.09
  9
$DIMTSZ
 40
0.0
  9
$DIMTOL
 70
     0
  9
$DIMLIM
 70
     0
  9
$DIMTIH
 70
     1
  9
$DIMTOH
 70
     1
  9
$DIMSE1
 70
     0
  9
$DIMSE2
 70
     0
  9
$DIMTAD
 70
     0
  9
$DIMZIN
 70
     0
  9
$DIMBLK
  1

  9
$DIMASO
 70
     1
  9
$DIMSHO
 70
     1
  9
$DIMPOST
  1

  9
$DIMAPOST
  1

  9
$DIMALT
 70
     0
  9
$DIMALTD
 70
     2
  9
$DIMALTF
 40
25.4
  9
$DIMLFAC
 40
1.0
  9
$DIMTOFL
 70
     0
  9
$DIMTVP
 40
0.0
  9
$DIMTIX
 70
     0
  9
$DIMSOXD
 70
     0
  9
$DIMSAH
 70
     0
  9
$DIMBLK1
  1

  9
$DIMBLK2
  1

  9
$DIMSTYLE
  2
Standard
  9
$DIMCLRD
 70
     0
  9
$DIMCLRE
 70
     0
  9
$DIMCLRT
 70
     0
  9
$DIMTFAC
 40
1.0
  9
$DIMGAP
 40
0.09
  9
$DIMJUST
 70
     0
  9
$DIMSD1
 70
     0
  9
$DIMSD2
 70
     0
  9
$DIMTOLJ
 70
     1
  9
$DIMTZIN
 70
     0
  9
$DIMALTZ
 70
     0
  9
$DIMALTTZ
 70
     0
  9
$DIMUPT
 70
     0
  9
$DIMDEC
 70
     4
  9
$DIMTDEC
 70
     4
  9
$DIMALTU
 70
     2
  9
$DIMALTTD
 70
     2
  9
$DIMTXSTY
  7
Standard
  9
$DIMAUNIT
 70
     0
  9
$DIMADEC
 70
     0
  9
$DIMALTRND
 40
0.0
  9
$DIMAZIN
 70
     0
  9
$DIMDSEP
 70
    46
  9
$DIMATFIT
 70
     3
  9
$DIMFRAC
 70
     0
  9
$DIMLDRBLK
  1

  9
$DIMLUNIT
 70
     2
  9
$DIMLWD
 70
    -2
  9
$DIMLWE
 70
    -2
  9
$DIMTMOVE
 70
     0
  9
$DIMFXL
 40
1.0
  9
$DIMFXLON
 70
     0
  9
$DIMJOGANG
 40
0.7853981633974483
  9
$DIMTFILL
 70
     0
  9
$DIMTFILLCLR
 70
     0
  9
$DIMARCSYM
 70
     0
  9
$DIMLTYPE
  6

  9
$DIMLTEX1
  6

  9
$DIMLTEX2
  6

  9
$DIMTXTDIRECTION
 70
     0
  9
$LUNITS
 70
     2
  9
$LUPREC
 70
     4
  9
$SKETCHINC
 40
0.1
  9
$FILLETRAD
 40
0.5
  9
$AUNITS
 70
     0
  9
$AUPREC
 70
     0
  9
$MENU
  1
.
  9
$ELEVATION
 40
0.0
  9
$PELEVATION
 40
0.0
  9
$THICKNESS
 40
0.0
  9
$LIMCHECK
 70
     0
  9
$CHAMFERA
 40
0.5
  9
$CHAMFERB
 40
0.5
  9
$CHAMFERC
 40
1.0
  9
$CHAMFERD
 40
0.0
  9
$SKPOLY
 70
     0
  9
$TDCREATE
 40
2457259.962222037
  9
$TDUCREATE
 40
2457259.878888704
  9
$TDUPDATE
 40
2457259.962222095
  9
$TDUUPDATE
 40
2457259.878888762
  9
$TDINDWG
 40
0.0000000116
  9
$TDUSRTIMER
 40
0.0000000116
  9
$USRTIMER
 70
     1
  9
$ANGBASE
 50
0.0
  9
$ANGDIR
 70
     0
  9
$PDMODE
 70
     0
  9
$PDSIZE
 40
0.0
  9
$PLINEWID
 40
0.0
  9
$SPLFRAME
 70
     0
  9
$SPLINETYPE
 70
     6
  9
$SPLINESEGS
 70
     8
  9
$HANDSEED
  5
76
  9
$SURFTAB1
 70
     6
  9
$SURFTAB2
 70
     6
  9
$SURFTYPE
 70
     6
  9
$SURFU
 70
     6
  9
$SURFV
 70
     6
  9
$UCSBASE
  2

  9
$UCSNAME
  2

  9
$UCSORG
 10
0.0
 20
0.0
 30
0.0
  9
$UCSXDIR
 10
1.0
 20
0.0
 30
0.0
  9
$UCSYDIR
 10
0.0
 20
1.0
 30
0.0
  9
$UCSORTHOREF
  2

  9
$UCSORTHOVIEW
 70
     0
  9
$UCSORGTOP
 10
0.0
 20
0.0
 30
0.0
  9
$UCSORGBOTTOM
 10
0.0
 20
0.0
 30
0.0
  9
$UCSORGLEFT
 10
0.0
 20
0.0
 30
0.0
  9
$UCSORGRIGHT
 10
0.0
 20
0.0
 30
0.0
  9
$UCSORGFRONT
 10
0.0
 20
0.0
 30
0.0
  9
$UCSORGBACK
 10
0.0
 20
0.0
 30
0.0
  9
$PUCSBASE
  2

  9
$PUCSNAME
  2

  9
$PUCSORG
 10
0.0
 20
0.0
 30
0.0
  9
$PUCSXDIR
 10
1.0
 20
0.0
 30
0.0
  9
$PUCSYDIR
 10
0.0
 20
1.0
 30
0.0
  9
$PUCSORTHOREF
  2

  9
$PUCSORTHOVIEW
 70
     0
  9
$PUCSORGTOP
 10
0.0
 20
0.0
 30
0.0
  9
$PUCSORGBOTTOM
 10
0.0
 20
0.0
 30
0.0
  9
$PUCSORGLEFT
 10
0.0
 20
0.0
 30
0.0
  9
$PUCSORGRIGHT
 10
0.0
 20
0.0
 30
0.0
  9
$PUCSORGFRONT
 10
0.0
 20
0.0
 30
0.0
  9
$PUCSORGBACK
 10
0.0
 20
0.0
 30
0.0
  9
$USERI1
 70
     0
  9
$USERI2
 70
     0
  9
$USERI3
 70
     0
  9
$USERI4
 70
     0
  9
$USERI5
 70
     0
  9
$USERR1
 40
0.0
  9
$USERR2
 40
0.0
  9
$USERR3
 40
0.0
  9
$USERR4
 40
0.0
  9
$USERR5
 40
0.0
  9
$WORLDVIEW
 70
     1
  9
$SHADEDGE
 70
     3
  9
$SHADEDIF
 70
    70
  9
$TILEMODE
 70
     1
  9
$MAXACTVP
 70
    64
  9
$PINSBASE
 10
0.0
 20
0.0
 30
0.0
  9
$PLIMCHECK
 70
     0
  9
$PEXTMIN
 10
1.000000000000000E+20
 20
1.000000000000000E+20
 30
1.000000000000000E+20
  9
$PEXTMAX
 10
-1.000000000000000E+20
 20
-1.000000000000000E+20
 30
-1.000000000000000E+20
  9
$PLIMMIN
 10
0.0
 20
0.0
  9
$PLIMMAX
 10
12.0
 20
9.0
  9
$UNITMODE
 70
     0
  9
$VISRETAIN
 70
     1
  9
$PLINEGEN
 70
     0
  9
$PSLTSCALE
 70
     1
  9
$TREEDEPTH
 70
  3020
  9
$CMLSTYLE
  2
Standard
  9
$CMLJUST
 70
     0
  9
$CMLSCALE
 40
1.0
  9
$PROXYGRAPHICS
 70
     1
  9
$MEASUREMENT
 70
     0
  9
$CELWEIGHT
370
    -1
  9
$ENDCAPS
280
     0
  9
$JOINSTYLE
280
     0
  9
$LWDISPLAY
290
     1
  9
$INSUNITS
 70
     1
  9
$HYPERLINKBASE
  1

  9
$STYLESHEET
  1

  9
$XEDIT
290
     1
  9
$CEPSNTYPE
380
     0
  9
$PSTYLEMODE
290
     1
  9
$FINGERPRINTGUID
  2
{DEC384C7-D341-4474-9A96-62128FD038D8}
  9
$VERSIONGUID
  2
{FAEB1C32-E019-11D5-929B-00C0DF256EC4}
  9
$EXTNAMES
290
     1
  9
$PSVPSCALE
 40
0.0
  9
$OLESTARTUP
290
     0
  9
$SORTENTS
280
   127
  9
$INDEXCTL
280
     0
  9
$HIDETEXT
280
     1
  9
$XCLIPFRAME
280
     2
  9
$HALOGAP
280
     0
  9
$OBSCOLOR
 70
   257
  9
$OBSLTYPE
280
     0
  9
$INTERSECTIONDISPLAY
280
     0
  9
$INTERSECTIONCOLOR
 70
   257
  9
$DIMASSOC
280
     2
  9
$PROJECTNAME
  1

  9
$CAMERADISPLAY
290
     0
  9
$LENSLENGTH
 40
50.0
  9
$CAMERAHEIGHT
 40
0.0
  9
$STEPSPERSEC
 40
2.0
  9
$STEPSIZE
 40
6.0
  9
$3DDWFPREC
 40
2.0
  9
$PSOLWIDTH
 40
0.25
  9
$PSOLHEIGHT
 40
4.0
  9
$LOFTANG1
 40
1.570796326794897
  9
$LOFTANG2
 40
1.570796326794897
  9
$LOFTMAG1
 40
0.0
  9
$LOFTMAG2
 40
0.0
  9
$LOFTPARAM
 70
     7
  9
$LOFTNORMALS
280
     1
  9
$LATITUDE
 40
37.795
  9
$LONGITUDE
 40
-122.394
  9
$NORTHDIRECTION
 40
0.0
  9
$TIMEZONE
 70
 -8000
  9
$LIGHTGLYPHDISPLAY
280
     1
  9
$TILEMODELIGHTSYNCH
280
     1
  9
$CMATERIAL
347
3C
  9
$SOLIDHIST
280
     1
  9
$SHOWHIST
280
     1
  9
$DWFFRAME
280
     2
  9
$DGNFRAME
280
     2
  9
$REALWORLDSCALE
290
     1
  9
$INTERFERECOLOR
 62
   256
  9
$CSHADOW
280
     0
  9
$SHADOWPLANELOCATION
 40
0.0
  0
ENDSEC
  0
SECTION
  2
CLASSES
  0
CLASS
  1
ACDBDICTIONARYWDFLT
  2
AcDbDictionaryWithDefault
  3
ObjectDBX Classes
 90
        0
 91
        4
280
     0
281
     0
  0
CLASS
  1
VISUALSTYLE
  2
AcDbVisualStyle
  3
ObjectDBX Classes
 90
     4095
 91
        4
280
     0
281
     0
  0
CLASS
  1
MATERIAL
  2
AcDbMaterial
  3
ObjectDBX Classes
 90
     1153
 91
        4
280
     0
281
     0
  0
CLASS
  1
SUN
  2
AcDbSun
  3
SCENEOE
 90
     1024
 91
        4
280
     0
281
     0
  0
ENDSEC
  0
SECTION
  2
TABLES
  0
TABLE
  2
VPORT
  5
8
330
0
100
AcDbSymbolTable
 70
     1
  0
VPORT
  5
29
330
8
100
AcDbSymbolTableRecord
100
AcDbViewportTableRecord
  2
*Active
 70
     0
 10
0.0
 20
0.0
 11
1.0
 21
1.0
 12
0.0
 22
0.0
 13
0.0
 23
0.0
 14
0.5
 24
0.5
 15
0.5
 25
0.5
 16
0.0
 26
0.0
 36
1.0
 17
105.0007777515277
 27
148.5000416295417
 37
0.0
 40
297.0000832590835
 41
0.7070757462376325
 42
50.0
 43
0.0
 44
0.0
 50
0.0
 51
0.0
 71
     0
 72
   100
 73
     1
 74
     3
 75
     0
 76
     0
 77
     0
 78
     0
281
     0
 65
     1
110
0.0
120
0.0
130
0.0
111
1.0
121
0.0
131
0.0
112
0.0
122
1.0
132
0.0
 79
     0
146
0.0
 60
     3
 61
     5
292
     1
282
     1
141
0.0
142
0.0
 63
   250
361
3F
  0
ENDTAB
  0
TABLE
  2
LTYPE
  5
5
330
0
100
AcDbSymbolTable
 70
     1
  0
LTYPE
  5
14
330
5
100
AcDbSymbolTableRecord
100
AcDbLinetypeTableRecord
  2
ByBlock
 70
     0
  3

 72
    65
 73
     0
 40
0.0
  0
LTYPE
  5
15
330
5
100
AcDbSymbolTableRecord
100
AcDbLinetypeTableRecord
  2
ByLayer
 70
     0
  3

 72
    65
 73
     0
 40
0.0
  0
LTYPE
  5
16
330
5
100
AcDbSymbolTableRecord
100
AcDbLinetypeTableRecord
  2
Continuous
 70
     0
  3
Solid line
 72
    65
 73
     0
 40
0.0
  0
ENDTAB
  0
TABLE
  2
LAYER
  5
2
330
0
100
AcDbSymbolTable
 70
     3
  0
LAYER
  5
10
330
2
100
AcDbSymbolTableRecord
100
AcDbLayerTableRecord
  2
0
 70
     0
 62
     7
  6
Continuous
370
    -3
390
F
347
3E
  0
LAYER
  5
40
330
2
100
AcDbSymbolTableRecord
100
AcDbLayerTableRecord
  2
Calque 2
 70
     5
 62
     7
  6
Continuous
370
    -3
390
F
347
3E
  0
LAYER
  5
49
330
2
100
AcDbSymbolTableRecord
100
AcDbLayerTableRecord
  2
Calque 1
 70
     0
 62
     7
  6
Continuous
370
    -3
390
F
347
3E
  0
ENDTAB
  0
TABLE
  2
STYLE
  5
3
330
0
100
AcDbSymbolTable
 70
     1
  0
STYLE
  5
11
330
3
100
AcDbSymbolTableRecord
100
AcDbTextStyleTableRecord
  2
Standard
 70
     0
 40
0.0
 41
1.0
 50
0.0
 71
     0
 42
0.2
  3
txt
  4

  0
ENDTAB
  0
TABLE
  2
VIEW
  5
6
330
0
100
AcDbSymbolTable
 70
     0
  0
ENDTAB
  0
TABLE
  2
UCS
  5
7
330
0
100
AcDbSymbolTable
 70
     0
  0
ENDTAB
  0
TABLE
  2
APPID
  5
9
330
0
100
AcDbSymbolTable
 70
     1
  0
APPID
  5
12
330
9
100
AcDbSymbolTableRecord
100
AcDbRegAppTableRecord
  2
ACAD
 70
     0
  0
ENDTAB
  0
TABLE
  2
DIMSTYLE
  5
A
330
0
100
AcDbSymbolTable
 70
     1
100
AcDbDimStyleTable
  0
DIMSTYLE
105
27
330
A
100
AcDbSymbolTableRecord
100
AcDbDimStyleTableRecord
  2
Standard
 70
     0
178
     0
340
11
  0
ENDTAB
  0
TABLE
  2
BLOCK_RECORD
  5
1
330
0
100
AcDbSymbolTable
 70
     2
  0
BLOCK_RECORD
  5
1F
330
1
100
AcDbSymbolTableRecord
100
AcDbBlockTableRecord
  2
*Model_Space
340
22
 70
     0
280
     1
281
     0
  0
BLOCK_RECORD
  5
1B
330
1
100
AcDbSymbolTableRecord
100
AcDbBlockTableRecord
  2
*Paper_Space
340
1E
 70
     0
280
     1
281
     0
  0
BLOCK_RECORD
  5
23
330
1
100
AcDbSymbolTableRecord
100
AcDbBlockTableRecord
  2
*Paper_Space0
340
26
 70
     0
280
     1
281
     0
  0
BLOCK_RECORD
  5
63
330
1
100
AcDbSymbolTableRecord
100
AcDbBlockTableRecord
  2
block 2
340
0
102
{BLKREFS
331
64
102
}
 70
     0
280
     1
281
     0
  0
ENDTAB
  0
ENDSEC
  0
SECTION
  2
BLOCKS
  0
BLOCK
  5
20
330
1F
100
AcDbEntity
  8
0
100
AcDbBlockBegin
  2
*Model_Space
 70
     0
 10
0.0
 20
0.0
 30
0.0
  3
*Model_Space
  1

  0
ENDBLK
  5
21
330
1F
100
AcDbEntity
  8
0
100
AcDbBlockEnd
  0
BLOCK
  5
1C
330
1B
100
AcDbEntity
 67
     1
  8
0
100
AcDbBlockBegin
  2
*Paper_Space
 70
     0
 10
0.0
 20
0.0
 30
0.0
  3
*Paper_Space
  1

  0
ENDBLK
  5
1D
330
1B
100
AcDbEntity
 67
     1
  8
0
100
AcDbBlockEnd
  0
BLOCK
  5
24
330
23
100
AcDbEntity
  8
0
100
AcDbBlockBegin
  2
*Paper_Space0
 70
     0
 10
0.0
 20
0.0
 30
0.0
  3
*Paper_Space0
  1

  0
ENDBLK
  5
25
330
23
100
AcDbEntity
  8
0
100
AcDbBlockEnd
  0
BLOCK
  5
65
330
63
100
AcDbEntity
  8
0
100
AcDbBlockBegin
  2
block 2
 70
     0
 10
0.0
 20
0.0
 30
0.0
  3
block 2
  1

  0
SPLINE
  5
67
330
63
100
AcDbEntity
  8
Calque 1
370
     0
100
AcDbSpline
210
0.0
220
0.0
230
1.0
 70
    11
 71
     3
 72
    17
 73
    13
 74
     0
 42
0.0000000001
 43
0.0000000001
 12
1.0
 22
0.0
 32
0.0
 13
1.0
 23
0.0
 33
0.0
 40
0.0
 40
0.0
 40
0.0
 40
0.0
 40
1.0
 40
1.0
 40
1.0
 40
2.0
 40
2.0
 40
2.0
 40
3.0
 40
3.0
 40
3.0
 40
4.0
 40
4.0
 40
4.0
 40
4.0
 10
121.7372505731356
 20
74.22034045589153
 30
0.0
 10
119.2613250434269
 20
74.85796303467093
 30
0.0
 10
117.2122468443406
 20
74.96598830998029
 30
0.0
 10
115.0341498193317
 20
73.62076465037737
 30
0.0
 10
114.3295631970578
 20
70.40694273142171
 30
0.0
 10
113.309405828335
 20
67.13664277835473
 30
0.0
 10
112.8563327083311
 20
63.1811994606587
 30
0.0
 10
115.2314891950962
 20
63.69705944588129
 30
0.0
 10
117.1357872564148
 20
63.41563820842995
 30
0.0
 10
119.1685443156397
 20
64.19313166391049
 30
0.0
 10
120.3926513370893
 20
67.27343460096593
 30
0.0
 10
121.3719197287716
 20
70.46385140246868
 30
0.0
 10
121.7372505731356
 20
74.22034045589153
 30
0.0
  0
SPLINE
  5
68
330
63
100
AcDbEntity
  8
Calque 1
370
     0
100
AcDbSpline
210
0.0
220
0.0
230
1.0
 70
    11
 71
     3
 72
    59
 73
    55
 74
     0
 42
0.0000000001
 43
0.0000000001
 12
1.0
 22
0.0
 32
0.0
 13
1.0
 23
0.0
 33
0.0
 40
0.0
 40
0.0
 40
0.0
 40
0.0
 40
1.0
 40
1.0
 40
1.0
 40
2.0
 40
2.0
 40
2.0
 40
3.0
 40
3.0
 40
3.0
 40
4.0
 40
4.0
 40
4.0
 40
5.0
 40
5.0
 40
5.0
 40
6.0
 40
6.0
 40
6.0
 40
7.0
 40
7.0
 40
7.0
 40
8.0
 40
8.0
 40
8.0
 40
9.0
 40
9.0
 40
9.0
 40
10.0
 40
10.0
 40
10.0
 40
11.0
 40
11.0
 40
11.0
 40
12.0
 40
12.0
 40
12.0
 40
13.0
 40
13.0
 40
13.0
 40
14.0
 40
14.0
 40
14.0
 40
15.0
 40
15.0
 40
15.0
 40
16.0
 40
16.0
 40
16.0
 40
17.0
 40
17.0
 40
17.0
 40
18.0
 40
18.0
 40
18.0
 40
18.0
 10
157.5726816419219
 20
86.2919119725134
 30
0.0
 10
149.6634529587321
 20
85.37245905119379
 30
0.0
 10
142.2222404972135
 20
85.39155779929014
 30
0.0
 10
135.1321909248758
 20
83.96360878434764
 30
0.0
 10
132.9784464185783
 20
82.02404155799877
 30
0.0
 10
134.2480932959736
 20
78.66091781345109
 30
0.0
 10
131.4475105804736
 20
76.80586308572475
 30
0.0
 10
131.0460277653613
 20
78.54389222618651
 30
0.0
 10
130.3123946817774
 20
79.80178271523836
 30
0.0
 10
129.7274820639223
 20
81.12596976053449
 30
0.0
 10
129.0374294382268
 20
82.68819137201459
 30
0.0
 10
127.7532270324063
 20
83.58118165363813
 30
0.0
 10
126.2281909203201
 20
83.30466967725326
 30
0.0
 10
120.40389096111
 20
82.24866178363706
 30
0.0
 10
114.0692216376068
 20
83.55906844699219
 30
0.0
 10
108.9384193995775
 20
79.45580900113214
 30
0.0
 10
105.7548497253517
 20
81.37914121500678
 30
0.0
 10
102.4673027630116
 20
80.8671354303583
 30
0.0
 10
99.1922227399589
 20
80.51892240418668
 30
0.0
 10
93.55260143060491
 20
79.91928200313217
 30
0.0
 10
87.9211406911816
 20
79.2078267217345
 30
0.0
 10
82.2681481049755
 20
78.78550107893643
 30
0.0
 10
79.81394820867065
 20
78.6021574035808
 30
0.0
 10
77.53465150378257
 20
78.41760794480533
 30
0.0
 10
76.03960925426485
 20
76.33298066668064
 30
0.0
 10
74.04492050015197
 20
76.45732708185139
 30
0.0
 10
72.5960209982898
 20
77.8019478497444
 30
0.0
 10
70.62195975339486
 20
77.55560199070224
 30
0.0
 10
65.34527925341195
 20
76.89713658423709
 30
0.0
 10
60.04187773157157
 20
76.44630277629858
 30
0.0
 10
54.74476350899176
 20
75.96045818549122
 30
0.0
 10
51.815678731892
 20
75.69180533318209
 30
0.0
 10
50.72485384202799
 20
74.940537667083
 30
0.0
 10
49.9123496036786
 20
72.06465808338358
 30
0.0
 10
49.11655407843267
 20
69.2478403554094
 30
0.0
 10
48.48175217158182
 20
66.38554736702991
 30
0.0
 10
47.78056758109957
 20
63.56046140989114
 30
0.0
 10
48.69134316816571
 20
62.85520730036693
 30
0.0
 10
49.92313705891679
 20
64.04393749755239
 30
0.0
 10
50.89163952720765
 20
62.53651443613454
 30
0.0
 10
49.585646892443
 20
54.62952506501016
 30
0.0
 10
46.4699671311234
 20
46.76379071232164
 30
0.0
 10
45.36577096440725
 20
38.01776986761144
 30
0.0
 10
63.9944357817987
 20
39.92622357535916
 30
0.0
 10
82.17002747918623
 20
41.6409767894487
 30
0.0
 10
100.3081322313249
 20
43.68794486755024
 30
0.0
 10
118.4080610191176
 20
45.73058504444843
 30
0.0
 10
136.5891002737412
 20
47.11323105375989
 30
0.0
 10
154.8302133808888
 20
49.66891054395213
 30
0.0
 10
154.1782936558456
 20
56.79993522071755
 30
0.0
 10
151.1844195517764
 20
62.99434609427746
 30
0.0
 10
150.7501437340138
 20
69.8273269478752
 30
0.0
 10
156.1727024959503
 20
73.87283798066373
 30
0.0
 10
155.884240344601
 20
80.10309937911703
 30
0.0
 10
157.5726816419219
 20
86.2919119725134
 30
0.0
  0
SPLINE
  5
69
330
63
100
AcDbEntity
  8
Calque 1
370
     0
100
AcDbSpline
210
0.0
220
0.0
230
1.0
 70
    11
 71
     3
 72
    89
 73
    85
 74
     0
 42
0.0000000001
 43
0.0000000001
 12
1.0
 22
0.0
 32
0.0
 13
1.0
 23
0.0
 33
0.0
 40
0.0
 40
0.0
 40
0.0
 40
0.0
 40
1.0
 40
1.0
 40
1.0
 40
2.0
 40
2.0
 40
2.0
 40
3.0
 40
3.0
 40
3.0
 40
4.0
 40
4.0
 40
4.0
 40
5.0
 40
5.0
 40
5.0
 40
6.0
 40
6.0
 40
6.0
 40
7.0
 40
7.0
 40
7.0
 40
8.0
 40
8.0
 40
8.0
 40
9.0
 40
9.0
 40
9.0
 40
10.0
 40
10.0
 40
10.0
 40
11.0
 40
11.0
 40
11.0
 40
12.0
 40
12.0
 40
12.0
 40
13.0
 40
13.0
 40
13.0
 40
14.0
 40
14.0
 40
14.0
 40
15.0
 40
15.0
 40
15.0
 40
16.0
 40
16.0
 40
16.0
 40
17.0
 40
17.0
 40
17.0
 40
18.0
 40
18.0
 40
18.0
 40
19.0
 40
19.0
 40
19.0
 40
20.0
 40
20.0
 40
20.0
 40
21.0
 40
21.0
 40
21.0
 40
22.0
 40
22.0
 40
22.0
 40
23.0
 40
23.0
 40
23.0
 40
24.0
 40
24.0
 40
24.0
 40
25.0
 40
25.0
 40
25.0
 40
26.0
 40
26.0
 40
26.0
 40
27.0
 40
27.0
 40
27.0
 40
28.0
 40
28.0
 40
28.0
 40
28.0
 10
51.0392618687506
 20
46.5607884608533
 30
0.0
 10
52.62443642890118
 20
52.72669116927275
 30
0.0
 10
54.2269871894055
 20
58.88813678540818
 30
0.0
 10
55.81924572714762
 20
65.05223081869788
 30
0.0
 10
55.98764630083599
 20
65.70412901189428
 30
0.0
 10
56.29609000599977
 20
66.34663931989338
 30
0.0
 10
56.09364758254777
 20
66.86460942610069
 30
0.0
 10
55.33441313313906
 20
68.39257386934935
 30
0.0
 10
53.89100425220651
 20
67.36044479381528
 30
0.0
 10
52.89653437669558
 20
68.02786744854208
 30
0.0
 10
53.37871855354985
 20
69.18165145839903
 30
0.0
 10
53.85272062862666
 20
70.31584148768363
 30
0.0
 10
54.42770706511487
 20
71.69166190156494
 30
0.0
 10
60.20534751234667
 20
71.99909360992991
 30
0.0
 10
65.88971199931534
 20
73.95409917042207
 30
0.0
 10
72.39278189650685
 20
72.92838658522928
 30
0.0
 10
71.4272723549188
 20
66.53605497604177
 30
0.0
 10
69.40375245796373
 20
60.69224716364639
 30
0.0
 10
68.35784300048867
 20
55.04190299459456
 30
0.0
 10
66.67422483684707
 20
54.04161952045227
 30
0.0
 10
65.48220026710385
 20
54.18579676650997
 30
0.0
 10
64.27008648431226
 20
54.40356986487133
 30
0.0
 10
64.47242124853034
 20
59.34637754863997
 30
0.0
 10
67.10520628205182
 20
63.6331744564767
 30
0.0
 10
67.07820534618618
 20
68.64451800855502
 30
0.0
 10
64.9122738146096
 20
68.95752646523675
 30
0.0
 10
62.96812030489599
 20
68.70368752351419
 30
0.0
 10
60.57920496803663
 20
67.97102337303546
 30
0.0
 10
58.98052993995322
 20
61.46892240894918
 30
0.0
 10
57.34430337108059
 20
54.81405299193885
 30
0.0
 10
55.78305069270571
 20
48.46416065276026
 30
0.0
 10
57.30022768071618
 20
47.00550722430548
 30
0.0
 10
58.62394102538308
 20
47.29224682791218
 30
0.0
 10
59.81611631805379
 20
47.41728226217997
 30
0.0
 10
66.3660395138447
 20
48.10423430193879
 30
0.0
 10
72.90452929899392
 20
48.89906089407949
 30
0.0
 10
79.45113659038027
 20
49.61880593648853
 30
0.0
 10
85.09327712580784
 20
50.23909537860776
 30
0.0
 10
90.74036998599547
 20
50.81455551572518
 30
0.0
 10
96.3864293175375
 20
51.39852073232181
 30
0.0
 10
101.5822792646977
 20
51.935934096174
 30
0.0
 10
106.7797225685199
 20
52.45784453034257
 30
0.0
 10
111.9763907258579
 20
52.98731264273191
 30
0.0
 10
120.3350321150985
 20
53.83896177853245
 30
0.0
 10
128.6940826094281
 20
54.6865844589846
 30
0.0
 10
137.0519057884909
 20
55.54609271886088
 30
0.0
 10
139.508861761184
 20
55.79874740901038
 30
0.0
 10
141.9862299246271
 20
55.96049464204287
 30
0.0
 10
144.5175784279548
 20
56.83025206098775
 30
0.0
 10
144.2675936868064
 20
60.900180208028
 30
0.0
 10
143.4772026551029
 20
64.68651240109183
 30
0.0
 10
141.8343442774212
 20
68.29720931994827
 30
0.0
 10
138.9198150287466
 20
68.29245078180926
 30
0.0
 10
138.227286240671
 20
66.48422782083554
 30
0.0
 10
137.6568645557008
 20
64.39339937083741
 30
0.0
 10
136.8655045908921
 20
61.49262897225705
 30
0.0
 10
136.6760028073566
 20
61.42321029822927
 30
0.0
 10
133.5413319571746
 20
61.53123557353864
 30
0.0
 10
133.6417995542632
 20
68.0949822149641
 30
0.0
 10
136.7874301144577
 20
73.93411761660762
 30
0.0
 10
137.6012908591544
 20
80.11278871016928
 30
0.0
 10
139.1561916427283
 20
80.71492680545062
 30
0.0
 10
140.1430392444781
 20
80.39130314830496
 30
0.0
 10
140.9745776353835
 20
79.46633807420893
 30
0.0
 10
141.328561196493
 20
77.51449769519387
 30
0.0
 10
139.7698277441917
 20
75.7658102905746
 30
0.0
 10
140.3650110529621
 20
73.82635072345965
 30
0.0
 10
144.1368953768347
 20
73.55873139979609
 30
0.0
 10
147.0753680391318
 20
76.12664097896096
 30
0.0
 10
148.5406748082424
 20
80.90671096474512
 30
0.0
 10
149.4632498473456
 20
81.68769257940447
 30
0.0
 10
150.5606204186315
 20
81.69649910473863
 30
0.0
 10
151.8601104356678
 20
81.48451807316187
 30
0.0
 10
152.7427654308356
 20
76.4604491996349
 30
0.0
 10
149.5015334709254
 20
73.68557550919363
 30
0.0
 10
146.0266163778814
 20
71.24440238019237
 30
0.0
 10
146.7420981146274
 20
64.97340272762601
 30
0.0
 10
149.1370639004328
 20
59.35311701668299
 30
0.0
 10
149.8910661110733
 20
52.90245563456084
 30
0.0
 10
116.8055963860004
 20
49.44708945839561
 30
0.0
 10
84.00779213394597
 20
46.0217602084924
 30
0.0
 10
51.48576777548576
 20
42.62524056958458
 30
0.0
 10
50.12812024028915
 20
44.17477992330961
 30
0.0
 10
50.73639491190357
 20
45.38267346413176
 30
0.0
 10
51.0392618687506
 20
46.5607884608533
 30
0.0
  0
SPLINE
  5
6A
330
63
100
AcDbEntity
  8
Calque 1
370
     0
100
AcDbSpline
210
0.0
220
0.0
230
1.0
 70
    11
 71
     3
 72
    17
 73
    13
 74
     0
 42
0.0000000001
 43
0.0000000001
 12
1.0
 22
0.0
 32
0.0
 13
1.0
 23
0.0
 33
0.0
 40
0.0
 40
0.0
 40
0.0
 40
0.0
 40
1.0
 40
1.0
 40
1.0
 40
2.0
 40
2.0
 40
2.0
 40
3.0
 40
3.0
 40
3.0
 40
4.0
 40
4.0
 40
4.0
 40
4.0
 10
83.78366714078369
 20
74.21728293364838
 30
0.0
 10
82.34665321834564
 20
68.11466232292359
 30
0.0
 10
80.93651104069252
 20
62.1261820319945
 30
0.0
 10
79.5159905128901
 20
56.09366911439455
 30
0.0
 10
78.1086044116252
 20
55.45329045922696
 30
0.0
 10
77.05548178547788
 20
55.1331764931069
 30
0.0
 10
75.57047337656094
 20
55.20293967668321
 30
0.0
 10
76.19857887906234
 20
61.78162941977595
 30
0.0
 10
78.69259116006862
 20
67.7441207716382
 30
0.0
 10
79.90845148420041
 20
73.68419747099952
 30
0.0
 10
81.1479968397933
 20
74.87015005995
 30
0.0
 10
82.20284201368324
 20
74.66486543272268
 30
0.0
 10
83.78366714078369
 20
74.21728293364838
 30
0.0
  0
SPLINE
  5
6B
330
63
100
AcDbEntity
  8
Calque 1
370
     0
100
AcDbSpline
210
0.0
220
0.0
230
1.0
 70
    11
 71
     3
 72
    23
 73
    19
 74
     0
 42
0.0000000001
 43
0.0000000001
 12
1.0
 22
0.0
 32
0.0
 13
1.0
 23
0.0
 33
0.0
 40
0.0
 40
0.0
 40
0.0
 40
0.0
 40
1.0
 40
1.0
 40
1.0
 40
2.0
 40
2.0
 40
2.0
 40
3.0
 40
3.0
 40
3.0
 40
4.0
 40
4.0
 40
4.0
 40
5.0
 40
5.0
 40
5.0
 40
6.0
 40
6.0
 40
6.0
 40
6.0
 10
125.723979664207
 20
72.66873404487535
 30
0.0
 10
124.9298851548569
 20
69.47941536755853
 30
0.0
 10
124.1642988106473
 20
66.28279739418234
 30
0.0
 10
123.3460455692069
 20
63.09972295243254
 30
0.0
 10
122.8129601065581
 20
61.02607691616709
 30
0.0
 10
121.6284070876485
 20
59.71465825601318
 30
0.0
 10
119.2934505588268
 20
59.72266810301638
 30
0.0
 10
115.7121661426757
 20
59.7349197238358
 30
0.0
 10
112.1714261940166
 20
58.43239371640319
 30
0.0
 10
108.2013196886615
 20
59.27915512298404
 30
0.0
 10
108.6244635416373
 20
65.8055655420881
 30
0.0
 10
110.4366914261126
 20
71.60639578830501
 30
0.0
 10
112.4372368425504
 20
77.51057889907939
 30
0.0
 10
117.0464946878065
 20
78.95792810797319
 30
0.0
 10
121.7076227519624
 20
78.84324949200794
 30
0.0
 10
126.4896736676506
 20
79.10395709285422
 30
0.0
 10
126.6035125415913
 20
76.6131530570186
 30
0.0
 10
126.2138722422096
 20
74.63629267204189
 30
0.0
 10
125.723979664207
 20
72.66873404487535
 30
0.0
  0
SPLINE
  5
6C
330
63
100
AcDbEntity
  8
Calque 1
370
     0
100
AcDbSpline
210
0.0
220
0.0
230
1.0
 70
    11
 71
     3
 72
    44
 73
    40
 74
     0
 42
0.0000000001
 43
0.0000000001
 12
1.0
 22
0.0
 32
0.0
 13
1.0
 23
0.0
 33
0.0
 40
0.0
 40
0.0
 40
0.0
 40
0.0
 40
1.0
 40
1.0
 40
1.0
 40
2.0
 40
2.0
 40
2.0
 40
3.0
 40
3.0
 40
3.0
 40
4.0
 40
4.0
 40
4.0
 40
5.0
 40
5.0
 40
5.0
 40
6.0
 40
6.0
 40
6.0
 40
7.0
 40
7.0
 40
7.0
 40
8.0
 40
8.0
 40
8.0
 40
9.0
 40
9.0
 40
9.0
 40
10.0
 40
10.0
 40
10.0
 40
11.0
 40
11.0
 40
11.0
 40
12.0
 40
12.0
 40
12.0
 40
13.0
 40
13.0
 40
13.0
 40
13.0
 10
103.8396780814077
 20
70.31164277756098
 30
0.0
 10
102.5228549277113
 20
70.00580442585793
 30
0.0
 10
101.5383112335673
 20
69.7771146811777
 30
0.0
 10
100.6902148524859
 20
69.58011981496175
 30
0.0
 10
99.40071561235686
 20
70.22278084588832
 30
0.0
 10
100.7647796378947
 20
71.45877344676205
 30
0.0
 10
99.18391144710073
 20
72.38873390931167
 30
0.0
 10
98.29927552202892
 20
72.59177922447358
 30
0.0
 10
96.76930861702947
 20
71.99213882341907
 30
0.0
 10
95.22590583963753
 20
71.88068998447123
 30
0.0
 10
94.25219266442524
 20
71.81038850472535
 30
0.0
 10
93.40594802216718
 20
71.17776131439958
 30
0.0
 10
93.21928844240699
 20
70.2578777561443
 30
0.0
 10
92.63962959516692
 20
67.4009892613073
 30
0.0
 10
91.36696825922206
 20
64.67990212412951
 30
0.0
 10
91.25907217499339
 20
61.67829808706524
 30
0.0
 10
93.42325962698057
 20
60.65824837757633
 30
0.0
 10
95.39437100886626
 20
60.98501568435227
 30
0.0
 10
97.10292305108234
 20
61.36322257309236
 30
0.0
 10
98.46319747158647
 20
62.17555455666749
 30
0.0
 10
98.11233602826054
 20
63.64432795311019
 30
0.0
 10
98.98982338020046
 20
64.43939139556551
 30
0.0
 10
100.0392425287011
 20
64.74669391284979
 30
0.0
 10
100.9949766118498
 20
64.57226442206223
 30
0.0
 10
101.8709136708213
 20
63.97456188721817
 30
0.0
 10
102.5050696222687
 20
59.68479358452542
 30
0.0
 10
101.5526945072182
 20
58.29605406257443
 30
0.0
 10
97.6484108574781
 20
57.46169499974048
 30
0.0
 10
94.2007530824611
 20
56.72489673467945
 30
0.0
 10
90.68852129894246
 20
57.2656260029362
 30
0.0
 10
87.38094971909443
 20
56.24320779030118
 30
0.0
 10
86.53373614373115
 20
59.42481806646975
 30
0.0
 10
87.89879063422106
 20
66.28921388452362
 30
0.0
 10
90.90041620313211
 20
75.05024242644144
 30
0.0
 10
95.44445408448307
 20
76.48615822469357
 30
0.0
 10
100.1957575229654
 20
76.99848698704379
 30
0.0
 10
105.2126347596669
 20
76.52523852660437
 30
0.0
 10
105.4428102017752
 20
74.17723369863235
 30
0.0
 10
104.6747046314919
 20
72.33966283049365
 30
0.0
 10
103.8396780814077
 20
70.31164277756098
 30
0.0
  0
ENDBLK
  5
66
330
63
100
AcDbEntity
  8
0
100
AcDbBlockEnd
  0
ENDSEC
  0
SECTION
  2
ENTITIES
  0
POLYLINE
  5
41
330
1F
100
AcDbEntity
  8
Calque 2
370
     0
100
AcDb2dPolyline
 66
     1
 10
0.0
 20
0.0
 30
0.0
  0
VERTEX
  5
42
330
41
100
AcDbEntity
  8
Calque 2
370
     0
100
AcDbVertex
100
AcDb2dVertex
 10
210.0015555030554
 20
0.0
 30
0.0
  0
VERTEX
  5
43
330
41
100
AcDbEntity
  8
Calque 2
370
     0
100
AcDbVertex
100
AcDb2dVertex
 10
0.0
 20
0.0
 30
0.0
  0
VERTEX
  5
44
330
41
100
AcDbEntity
  8
Calque 2
370
     0
100
AcDbVertex
100
AcDb2dVertex
 10
0.0
 20
299.2924969669912
 30
0.0
  0
VERTEX
  5
45
330
41
100
AcDbEntity
  8
Calque 2
370
     0
100
AcDbVertex
100
AcDb2dVertex
 10
210.0015555030554
 20
299.2924969669912
 30
0.0
  0
VERTEX
  5
46
330
41
100
AcDbEntity
  8
Calque 2
370
     0
100
AcDbVertex
100
AcDb2dVertex
 10
210.0015555030554
 20
0.0
 30
0.0
  0
SEQEND
  5
48
330
41
100
AcDbEntity
  8
Calque 2
370
     0
  0
HATCH
  5
47
330
1F
100
AcDbEntity
  8
Calque 2
 62
     7
420
 16777215
100
AcDbHatch
 10
0.0
 20
0.0
 30
0.0
210
0.0
220
0.0
230
1.0
  2
SOLID
 70
     1
 71
     0
 91
        1
 92
        1
 93
        4
 72
     1
 10
210.0015555030554
 20
0.0
 11
0.0
 21
0.0
 72
     1
 10
0.0
 20
0.0
 11
0.0
 21
299.2924969669912
 72
     1
 10
0.0
 20
299.2924969669912
 11
210.0015555030554
 21
299.2924969669912
 72
     1
 10
210.0015555030554
 20
299.2924969669912
 11
210.0015555030554
 21
0.0
 97
        0
 75
     2
 76
     1
 98
        0
  0
SPLINE
  5
4A
330
1F
100
AcDbEntity
  8
Calque 1
370
     0
100
AcDbSpline
210
0.0
220
0.0
230
1.0
 70
    11
 71
     3
 72
    65
 73
    61
 74
     0
 42
0.0000000001
 43
0.0000000001
 12
1.0
 22
0.0
 32
0.0
 13
1.0
 23
0.0
 33
0.0
 40
0.0
 40
0.0
 40
0.0
 40
0.0
 40
1.0
 40
1.0
 40
1.0
 40
2.0
 40
2.0
 40
2.0
 40
3.0
 40
3.0
 40
3.0
 40
4.0
 40
4.0
 40
4.0
 40
5.0
 40
5.0
 40
5.0
 40
6.0
 40
6.0
 40
6.0
 40
7.0
 40
7.0
 40
7.0
 40
8.0
 40
8.0
 40
8.0
 40
9.0
 40
9.0
 40
9.0
 40
10.0
 40
10.0
 40
10.0
 40
11.0
 40
11.0
 40
11.0
 40
12.0
 40
12.0
 40
12.0
 40
13.0
 40
13.0
 40
13.0
 40
14.0
 40
14.0
 40
14.0
 40
15.0
 40
15.0
 40
15.0
 40
16.0
 40
16.0
 40
16.0
 40
17.0
 40
17.0
 40
17.0
 40
18.0
 40
18.0
 40
18.0
 40
19.0
 40
19.0
 40
19.0
 40
20.0
 40
20.0
 40
20.0
 40
20.0
 10
42.99757631843745
 20
135.3844222711346
 30
0.0
 10
43.87782762585855
 20
143.3337578391234
 30
0.0
 10
47.27166038548265
 20
150.9202071219343
 30
0.0
 10
48.17291989472337
 20
158.8057363612174
 30
0.0
 10
47.46617956683955
 20
159.9986388746486
 30
0.0
 10
46.00128229351653
 20
159.3671315139997
 30
0.0
 10
45.26922761151123
 20
160.8693346653678
 30
0.0
 10
46.59374646864374
 20
165.6092486251218
 30
0.0
 10
48.01237458153354
 20
170.6859423740494
 30
0.0
 10
49.45716974874649
 20
175.8562775168818
 30
0.0
 10
54.94197187041445
 20
176.4435147927918
 30
0.0
 10
59.99324154396549
 20
177.147630926849
 30
0.0
 10
65.06871501020557
 20
177.4663291740431
 30
0.0
 10
68.09955339130728
 20
177.6566437847947
 30
0.0
 10
71.11513888997858
 20
178.7709090418286
 30
0.0
 10
74.1941348092055
 20
177.8451038784202
 30
0.0
 10
80.49292929766574
 20
180.0941044066654
 30
0.0
 10
87.18617853699074
 20
179.5517558219796
 30
0.0
 10
93.67103943756081
 20
180.5024810592704
 30
0.0
 10
98.22426447173122
 20
181.1700147592879
 30
0.0
 10
102.8300984060607
 20
182.1536635360501
 30
0.0
 10
107.5480264401665
 20
181.3077582374336
 30
0.0
 10
109.9261581419536
 20
180.8813684151443
 30
0.0
 10
112.0811747636508
 20
182.5296636275496
 30
0.0
 10
114.5018561729841
 20
182.6541936711718
 30
0.0
 10
117.89458585957
 20
182.8287299095626
 30
0.0
 10
121.2661917625987
 20
183.3806082899437
 30
0.0
 10
124.6542174352389
 20
183.6903826502153
 30
0.0
 10
127.317324865636
 20
183.9338752790931
 30
0.0
 10
129.8580497936619
 20
183.5786431096305
 30
0.0
 10
131.817253369701
 20
181.4985937799623
 30
0.0
 10
132.682239748144
 20
182.4020177607363
 30
0.0
 10
132.4499771060492
 20
183.6390962656048
 30
0.0
 10
133.8158289694457
 20
184.7191477002719
 30
0.0
 10
141.9003567522032
 20
185.5528827302483
 30
0.0
 10
150.5375306385479
 20
186.4436106268697
 30
0.0
 10
159.4235953093091
 20
187.3600054833087
 30
0.0
 10
160.3453632514455
 20
183.5290002647764
 30
0.0
 10
158.5285824232394
 20
180.2856451605869
 30
0.0
 10
157.7238157582175
 20
176.9892598526636
 30
0.0
 10
156.9115060010649
 20
173.6619591972689
 30
0.0
 10
156.6221492362109
 20
169.8748190390187
 30
0.0
 10
153.0878459205885
 20
168.0859197818472
 30
0.0
 10
153.7967611386414
 20
160.7227262307069
 30
0.0
 10
155.9088790285017
 20
153.995108517394
 30
0.0
 10
157.3854288945114
 20
147.3829136579118
 30
0.0
 10
156.902077135901
 20
146.287344642355
 30
0.0
 10
156.1819827219137
 20
145.9407765450908
 30
0.0
 10
155.3631092243707
 20
145.8923429131243
 30
0.0
 10
144.0661618710018
 20
145.2241775833273
 30
0.0
 10
132.8302364659911
 20
143.9526820926996
 30
0.0
 10
121.5901644440351
 20
142.6697365216132
 30
0.0
 10
110.1037177381453
 20
141.3586606345683
 30
0.0
 10
98.54364774421202
 20
140.6344091850005
 30
0.0
 10
87.09286402777597
 20
139.084095379367
 30
0.0
 10
73.26045315732868
 20
137.2113300130861
 30
0.0
 10
59.28597247032788
 20
136.7797536637921
 30
0.0
 10
45.4939751615582
 20
134.6170532983843
 30
0.0
 10
44.8109759738287
 20
134.5099601436677
 30
0.0
 10
44.13403945523634
 20
134.4924203707361
 30
0.0
 10
42.99757631843745
 20
135.3844222711346
 30
0.0
  0
SPLINE
  5
4B
330
1F
100
AcDbEntity
  8
Calque 1
370
     0
100
AcDbSpline
210
0.0
220
0.0
230
1.0
 70
    11
 71
     3
 72
    59
 73
    55
 74
     0
 42
0.0000000001
 43
0.0000000001
 12
1.0
 22
0.0
 32
0.0
 13
1.0
 23
0.0
 33
0.0
 40
0.0
 40
0.0
 40
0.0
 40
0.0
 40
1.0
 40
1.0
 40
1.0
 40
2.0
 40
2.0
 40
2.0
 40
3.0
 40
3.0
 40
3.0
 40
4.0
 40
4.0
 40
4.0
 40
5.0
 40
5.0
 40
5.0
 40
6.0
 40
6.0
 40
6.0
 40
7.0
 40
7.0
 40
7.0
 40
8.0
 40
8.0
 40
8.0
 40
9.0
 40
9.0
 40
9.0
 40
10.0
 40
10.0
 40
10.0
 40
11.0
 40
11.0
 40
11.0
 40
12.0
 40
12.0
 40
12.0
 40
13.0
 40
13.0
 40
13.0
 40
14.0
 40
14.0
 40
14.0
 40
15.0
 40
15.0
 40
15.0
 40
16.0
 40
16.0
 40
16.0
 40
17.0
 40
17.0
 40
17.0
 40
18.0
 40
18.0
 40
18.0
 40
18.0
 10
45.3657722233258
 20
136.7210550711588
 30
0.0
 10
63.99443908103336
 20
138.6295094734822
 30
0.0
 10
82.17002747918623
 20
140.3442553945274
 30
0.0
 10
100.3081218126893
 20
142.3912151377201
 30
0.0
 10
118.4080631028447
 20
144.4338719844353
 30
0.0
 10
136.5890926334087
 20
145.8165160836634
 30
0.0
 10
154.830206435132
 20
148.3721943583484
 30
0.0
 10
154.1782915721186
 20
155.5032190351138
 30
0.0
 10
151.1844237192305
 20
161.6976318187567
 30
0.0
 10
150.7501333153786
 20
168.5305962630037
 30
0.0
 10
156.1727101362828
 20
172.5761224896357
 30
0.0
 10
155.8842493740849
 20
178.8063682167245
 30
0.0
 10
157.5726830310733
 20
184.9951826116765
 30
0.0
 10
149.6634487912781
 20
184.0757311880359
 30
0.0
 10
142.2222300785783
 20
184.0948298493104
 30
0.0
 10
135.1321818953919
 20
182.6668881274126
 30
0.0
 10
132.9784519751838
 20
180.7273256328607
 30
0.0
 10
134.2480981580034
 20
177.3642004991616
 30
0.0
 10
131.4475064130195
 20
175.5091403016517
 30
0.0
 10
131.0460347111182
 20
177.2471653614813
 30
0.0
 10
130.3123960709287
 20
178.5050599745763
 30
0.0
 10
129.7274834530737
 20
179.8292496679423
 30
0.0
 10
129.0374259653483
 20
181.3914667646805
 30
0.0
 10
127.7532249486793
 20
182.2844590866201
 30
0.0
 10
126.228191962184
 20
182.00795175521
 30
0.0
 10
120.4038986014425
 20
180.9519338336574
 30
0.0
 10
114.0692275415005
 20
182.2623553001571
 30
0.0
 10
108.9384298182133
 20
178.1590798790558
 30
0.0
 10
105.754843821458
 20
180.082408185942
 30
0.0
 10
102.4673058886022
 20
179.5704221098792
 30
0.0
 10
99.19221301589903
 20
179.2221987518939
 30
0.0
 10
93.552605598059
 20
178.6225672066798
 30
0.0
 10
87.92113513457616
 20
177.9110994229195
 30
0.0
 10
82.26815539802048
 20
177.4887761243142
 30
0.0
 10
79.81394161020135
 20
177.3054263714211
 30
0.0
 10
77.53466192241812
 20
177.1208810801001
 30
0.0
 10
76.03961116434813
 20
175.0362514577824
 30
0.0
 10
74.04491650634164
 20
175.1605939659647
 30
0.0
 10
72.59601248973753
 20
176.5052269757547
 30
0.0
 10
70.62195714873589
 20
176.2588874547158
 30
0.0
 10
65.34527248129889
 20
175.6004192699476
 30
0.0
 10
60.04188745563143
 20
175.1495814681988
 30
0.0
 10
54.7447549136173
 20
174.663740958024
 30
0.0
 10
51.81568706680051
 20
174.3950925336349
 30
0.0
 10
50.72484420479
 20
173.6438177481349
 30
0.0
 10
49.9123573308333
 20
170.7679370357498
 30
0.0
 10
49.1165598086822
 20
167.9511273822181
 30
0.0
 10
48.481758856873
 20
165.0888351752362
 30
0.0
 10
47.78056905707281
 20
162.2637283808263
 30
0.0
 10
48.69133557124383
 20
161.558475313166
 30
0.0
 10
49.92314387444079
 20
162.7472207910167
 30
0.0
 10
50.89164655978667
 20
161.2397874846074
 30
0.0
 10
49.58564585057947
 20
153.3328062747475
 30
0.0
 10
46.46996982260424
 20
145.4670750476495
 30
0.0
 10
45.3657722233258
 20
136.7210550711588
 30
0.0
  0
SPLINE
  5
4C
330
1F
100
AcDbEntity
  8
Calque 1
370
     0
100
AcDbSpline
210
0.0
220
0.0
230
1.0
 70
    11
 71
     3
 72
    92
 73
    88
 74
     0
 42
0.0000000001
 43
0.0000000001
 12
1.0
 22
0.0
 32
0.0
 13
1.0
 23
0.0
 33
0.0
 40
0.0
 40
0.0
 40
0.0
 40
0.0
 40
1.0
 40
1.0
 40
1.0
 40
2.0
 40
2.0
 40
2.0
 40
3.0
 40
3.0
 40
3.0
 40
4.0
 40
4.0
 40
4.0
 40
5.0
 40
5.0
 40
5.0
 40
6.0
 40
6.0
 40
6.0
 40
7.0
 40
7.0
 40
7.0
 40
8.0
 40
8.0
 40
8.0
 40
9.0
 40
9.0
 40
9.0
 40
10.0
 40
10.0
 40
10.0
 40
11.0
 40
11.0
 40
11.0
 40
12.0
 40
12.0
 40
12.0
 40
13.0
 40
13.0
 40
13.0
 40
14.0
 40
14.0
 40
14.0
 40
15.0
 40
15.0
 40
15.0
 40
16.0
 40
16.0
 40
16.0
 40
17.0
 40
17.0
 40
17.0
 40
18.0
 40
18.0
 40
18.0
 40
19.0
 40
19.0
 40
19.0
 40
20.0
 40
20.0
 40
20.0
 40
21.0
 40
21.0
 40
21.0
 40
22.0
 40
22.0
 40
22.0
 40
23.0
 40
23.0
 40
23.0
 40
24.0
 40
24.0
 40
24.0
 40
25.0
 40
25.0
 40
25.0
 40
26.0
 40
26.0
 40
26.0
 40
27.0
 40
27.0
 40
27.0
 40
28.0
 40
28.0
 40
28.0
 40
29.0
 40
29.0
 40
29.0
 40
29.0
 10
136.1083246964116
 20
180.975535298979
 30
0.0
 10
139.0041636075031
 20
181.2315387556461
 30
0.0
 10
141.2959508672529
 20
182.2225684845238
 30
0.0
 10
143.5894363645945
 20
181.0950246764938
 30
0.0
 10
144.3529452328777
 20
179.3197028549253
 30
0.0
 10
143.0963952749319
 20
177.9097020234276
 30
0.0
 10
143.0401033871091
 20
176.3525757324803
 30
0.0
 10
144.8757627829139
 20
176.4830001191593
 30
0.0
 10
144.8757627829139
 20
176.4830001191593
 30
0.0
 10
147.3878729284293
 20
181.7721174746191
 30
0.0
 10
149.6096157014426
 20
182.5543538402855
 30
0.0
 10
151.9110818736082
 20
183.4373898536374
 30
0.0
 10
154.5729494863764
 20
182.3545231082976
 30
0.0
 10
154.2810297371789
 20
176.6787376297096
 30
0.0
 10
152.9345252799806
 20
171.6990530986247
 30
0.0
 10
148.1433907032528
 20
168.3882256083484
 30
0.0
 10
149.6459559022059
 20
162.2075224467466
 30
0.0
 10
151.0589208355152
 20
156.3953641917511
 30
0.0
 10
152.6124331622592
 20
150.0050654320013
 30
0.0
 10
140.7616936553932
 20
148.7464682121719
 30
0.0
 10
129.2183455715014
 20
147.5161523785163
 30
0.0
 10
117.6739608333737
 20
146.2956821554459
 30
0.0
 10
106.1567843619589
 20
145.0780874757843
 30
0.0
 10
94.64778651944245
 20
143.772382395361
 30
0.0
 10
83.11819884844026
 20
142.685796848298
 30
0.0
 10
71.5344134353587
 20
141.5941061698204
 30
0.0
 10
59.99484080452071
 20
139.9543744246644
 30
0.0
 10
47.83086827596628
 20
139.23941118868
 30
0.0
 10
49.3370858578412
 20
147.8882226909233
 30
0.0
 10
52.11609149231551
 20
155.681101609007
 30
0.0
 10
53.59897849339274
 20
163.5651930765854
 30
0.0
 10
52.87345466795929
 20
164.754735580055
 30
0.0
 10
51.42842573261135
 20
164.1159638257758
 30
0.0
 10
50.74717524774086
 20
165.3759701660619
 30
0.0
 10
50.86303959125242
 20
167.4706081901451
 30
0.0
 10
51.68728129075741
 20
169.5485008622569
 30
0.0
 10
52.70760171112655
 20
171.6048933776019
 30
0.0
 10
55.80431972940708
 20
173.0621349072973
 30
0.0
 10
59.19429238456344
 20
172.7402589762632
 30
0.0
 10
62.41526174796559
 20
173.291860611638
 30
0.0
 10
64.63743819668323
 20
173.6724142980333
 30
0.0
 10
66.92779549870461
 20
173.731332984342
 30
0.0
 10
69.18651140459049
 20
174.0063432880575
 30
0.0
 10
73.37091413598347
 20
174.5158197752847
 30
0.0
 10
74.87037718620475
 20
172.7483946282906
 30
0.0
 10
73.89621913525498
 20
168.6806558706872
 30
0.0
 10
72.73303577970165
 20
163.8236377497925
 30
0.0
 10
71.42031114358272
 20
158.9997053083847
 30
0.0
 10
70.38146638922355
 20
154.1169518553763
 30
0.0
 10
69.94935608485783
 20
152.0859612758074
 30
0.0
 10
68.87105335304938
 20
151.1574654997706
 30
0.0
 10
66.97864625411655
 20
150.9360121920485
 30
0.0
 10
65.3207938970974
 20
150.742004174998
 30
0.0
 10
63.6540622579393
 20
150.6238959178569
 30
0.0
 10
61.54396428104381
 20
150.4314741380674
 30
0.0
 10
62.15636386411258
 20
155.6041235203192
 30
0.0
 10
64.17042546325825
 20
160.2215429773695
 30
0.0
 10
64.64425458898512
 20
165.0012431015921
 30
0.0
 10
62.79780148676067
 20
165.654976016507
 30
0.0
 10
62.28612406277563
 20
164.7212162248637
 30
0.0
 10
61.97990864328824
 20
163.7167373398334
 30
0.0
 10
60.49472433307454
 20
158.8448531283525
 30
0.0
 10
59.27160517191797
 20
153.9066308597288
 30
0.0
 10
58.21673525376848
 20
148.9410961380372
 30
0.0
 10
59.54605677630286
 20
147.7736150953233
 30
0.0
 10
60.97570064278162
 20
148.1334330923352
 30
0.0
 10
62.24806608947729
 20
148.3201220179191
 30
0.0
 10
74.84094714546298
 20
150.1678201470907
 30
0.0
 10
87.55427413993893
 20
150.8516056162207
 30
0.0
 10
100.187640711304
 20
152.3083965399288
 30
0.0
 10
112.7053448002207
 20
153.7518437961689
 30
0.0
 10
125.244104951564
 20
155.0128399068313
 30
0.0
 10
137.7742020074562
 20
156.3484751225028
 30
0.0
 10
139.1303541211646
 20
156.4930336906215
 30
0.0
 10
140.5020195831925
 20
156.5660553024629
 30
0.0
 10
141.6699694645055
 20
157.646222970033
 30
0.0
 10
142.3330635234533
 20
159.8000023787596
 30
0.0
 10
141.3362814054284
 20
161.7268795333765
 30
0.0
 10
140.7797178948775
 20
164.0295907324895
 30
0.0
 10
138.9810654925112
 20
162.6261901066065
 30
0.0
 10
139.6231243263036
 20
160.6250723597897
 30
0.0
 10
138.5309908558156
 20
158.9165645967748
 30
0.0
 10
136.3728225968674
 20
158.1198619556613
 30
0.0
 10
133.8618376639908
 20
157.9077307220886
 30
0.0
 10
130.7137531678387
 20
157.9257549615729
 30
0.0
 10
131.8714302745093
 20
165.9079873712798
 30
0.0
 10
134.3296239811048
 20
173.2573072068692
 30
0.0
 10
136.1083246964116
 20
180.975535298979
 30
0.0
  0
SPLINE
  5
4D
330
1F
100
AcDbEntity
  8
Calque 1
370
     0
100
AcDbSpline
210
0.0
220
0.0
230
1.0
 70
    11
 71
     3
 72
    89
 73
    85
 74
     0
 42
0.0000000001
 43
0.0000000001
 12
1.0
 22
0.0
 32
0.0
 13
1.0
 23
0.0
 33
0.0
 40
0.0
 40
0.0
 40
0.0
 40
0.0
 40
1.0
 40
1.0
 40
1.0
 40
2.0
 40
2.0
 40
2.0
 40
3.0
 40
3.0
 40
3.0
 40
4.0
 40
4.0
 40
4.0
 40
5.0
 40
5.0
 40
5.0
 40
6.0
 40
6.0
 40
6.0
 40
7.0
 40
7.0
 40
7.0
 40
8.0
 40
8.0
 40
8.0
 40
9.0
 40
9.0
 40
9.0
 40
10.0
 40
10.0
 40
10.0
 40
11.0
 40
11.0
 40
11.0
 40
12.0
 40
12.0
 40
12.0
 40
13.0
 40
13.0
 40
13.0
 40
14.0
 40
14.0
 40
14.0
 40
15.0
 40
15.0
 40
15.0
 40
16.0
 40
16.0
 40
16.0
 40
17.0
 40
17.0
 40
17.0
 40
18.0
 40
18.0
 40
18.0
 40
19.0
 40
19.0
 40
19.0
 40
20.0
 40
20.0
 40
20.0
 40
21.0
 40
21.0
 40
21.0
 40
22.0
 40
22.0
 40
22.0
 40
23.0
 40
23.0
 40
23.0
 40
24.0
 40
24.0
 40
24.0
 40
25.0
 40
25.0
 40
25.0
 40
26.0
 40
26.0
 40
26.0
 40
27.0
 40
27.0
 40
27.0
 40
28.0
 40
28.0
 40
28.0
 40
28.0
 10
144.5175805116819
 20
155.5335372645354
 30
0.0
 10
141.9862271463244
 20
154.6637713370379
 30
0.0
 10
139.5088527317001
 20
154.5020272295963
 30
0.0
 10
137.0519092613693
 20
154.2493596897961
 30
0.0
 10
128.6940798311253
 20
153.3898665369414
 30
0.0
 10
120.3350262112049
 20
152.5422480239436
 30
0.0
 10
111.9763893367065
 20
151.6906001036504
 30
0.0
 10
106.7797249995351
 20
151.1611198361863
 30
0.0
 10
101.5822792646977
 20
150.6392008934654
 30
0.0
 10
96.38643799973386
 20
150.1018024629907
 30
0.0
 10
90.74037102785898
 20
149.5178327316522
 30
0.0
 10
85.09327261106591
 20
148.9423802348676
 30
0.0
 10
79.45114648808391
 20
148.3220859307182
 30
0.0
 10
72.90453693932675
 20
147.6023483549982
 30
0.0
 10
66.36603308901947
 20
146.8075210682819
 30
0.0
 10
59.81611432114862
 20
146.1205631246294
 30
0.0
 10
58.62393590288735
 20
145.995526474854
 30
0.0
 10
57.30021960627364
 20
145.7087847875203
 30
0.0
 10
55.78304357330482
 20
147.1674406469903
 30
0.0
 10
57.34429824858486
 20
153.5173359381154
 30
0.0
 10
58.98053323918787
 20
160.1721951101342
 30
0.0
 10
60.5792116533278
 20
166.6742988525232
 30
0.0
 10
62.96813054988746
 20
167.4069633502898
 30
0.0
 10
64.91227659291233
 20
167.6607990795996
 30
0.0
 10
67.07820413067857
 20
167.3478024307048
 30
0.0
 10
67.1052040246807
 20
162.336453061555
 30
0.0
 10
64.47243045165828
 20
158.0496611893922
 30
0.0
 10
64.27007710754023
 20
153.1068521164722
 30
0.0
 10
65.48219418956647
 20
152.8890635638014
 30
0.0
 10
66.67422414227138
 20
152.7448930898568
 30
0.0
 10
68.35784438964004
 20
153.7451810787413
 30
0.0
 10
69.40375818821327
 20
159.3955144818697
 30
0.0
 10
71.42726297814677
 20
165.2393401795894
 30
0.0
 10
72.39278137557493
 20
171.6316627592927
 30
0.0
 10
65.88971651405727
 20
172.6573683119065
 30
0.0
 10
60.20535454492569
 20
170.7023699576371
 30
0.0
 10
54.42770281083857
 20
170.3949433717682
 30
0.0
 10
53.85271524566497
 20
169.019110455524
 30
0.0
 10
53.37871942176962
 20
167.884931278985
 30
0.0
 10
52.89652934102172
 20
166.7311429280298
 30
0.0
 10
53.89099461496852
 20
166.0637329493097
 30
0.0
 10
55.33440410365487
 20
167.0958472651101
 30
0.0
 10
56.09363872670767
 20
165.5678788280511
 30
0.0
 10
56.29608062922774
 20
165.0499267808118
 30
0.0
 10
55.98764473804054
 20
164.4074069223969
 30
0.0
 10
55.8192535411242
 20
163.7555155013136
 30
0.0
 10
54.22699691346536
 20
157.5914183424333
 30
0.0
 10
52.62443234826898
 20
151.4299753309569
 30
0.0
 10
51.03927146257733
 20
145.2640601201745
 30
0.0
 10
50.73639912276861
 20
144.0859572785277
 30
0.0
 10
50.12812662170343
 20
142.878051929919
 30
0.0
 10
51.4857640421414
 20
141.3285143126328
 30
0.0
 10
84.00780185800583
 20
144.7250415918738
 30
0.0
 10
116.8055883983798
 20
148.1503685844056
 30
0.0
 10
149.8910647219219
 20
151.6057429218355
 30
0.0
 10
149.1370680678868
 20
158.0563890232924
 30
0.0
 10
146.7421050603842
 20
163.6766698722053
 30
0.0
 10
146.0266156833057
 20
169.9476791620096
 30
0.0
 10
149.5015327763497
 20
172.3888631437561
 30
0.0
 10
152.7427702928653
 20
175.1637325799211
 30
0.0
 10
151.8601139085462
 20
180.1877913821004
 30
0.0
 10
150.5606183349045
 20
180.3997780571048
 30
0.0
 10
149.4632442907401
 20
180.3909795193913
 30
0.0
 10
148.5406741136668
 20
179.6099855760131
 30
0.0
 10
147.07537637404
 20
174.8299142878995
 30
0.0
 10
144.1369044063186
 20
172.2619993257729
 30
0.0
 10
140.3650041072053
 20
172.5296306308675
 30
0.0
 10
139.769829133343
 20
174.4690947995466
 30
0.0
 10
141.3285507778577
 20
176.2177729142157
 30
0.0
 10
140.9745880540194
 20
178.169624189387
 30
0.0
 10
140.1430454956593
 20
179.0945873968109
 30
0.0
 10
139.156192337304
 20
179.4182051934739
 30
0.0
 10
137.6012943320328
 20
178.8160568966121
 30
0.0
 10
136.7874217795495
 20
172.6374022992233
 30
0.0
 10
133.6417960813848
 20
166.7982493595434
 30
0.0
 10
133.5413291788718
 20
160.2345089692994
 30
0.0
 10
136.6760048910837
 20
160.1264885560198
 30
0.0
 10
136.8655094529219
 20
160.1959105292822
 30
0.0
 10
137.6568673340035
 20
163.0966670363486
 30
0.0
 10
138.2272772111872
 20
165.1875126770953
 30
0.0
 10
138.9198247528062
 20
166.99572417757
 30
0.0
 10
141.8343546960571
 20
167.0004802846938
 30
0.0
 10
143.477206822557
 20
163.3897979519273
 30
0.0
 10
144.2675853518982
 20
159.6034496099784
 30
0.0
 10
144.5175805116819
 20
155.5335372645354
 30
0.0
  0
SPLINE
  5
4E
330
1F
100
AcDbEntity
  8
Calque 1
370
     0
100
AcDbSpline
210
0.0
220
0.0
230
1.0
 70
    11
 71
     3
 72
    35
 73
    31
 74
     0
 42
0.0000000001
 43
0.0000000001
 12
1.0
 22
0.0
 32
0.0
 13
1.0
 23
0.0
 33
0.0
 40
0.0
 40
0.0
 40
0.0
 40
0.0
 40
1.0
 40
1.0
 40
1.0
 40
2.0
 40
2.0
 40
2.0
 40
3.0
 40
3.0
 40
3.0
 40
4.0
 40
4.0
 40
4.0
 40
5.0
 40
5.0
 40
5.0
 40
6.0
 40
6.0
 40
6.0
 40
7.0
 40
7.0
 40
7.0
 40
8.0
 40
8.0
 40
8.0
 40
9.0
 40
9.0
 40
9.0
 40
10.0
 40
10.0
 40
10.0
 40
10.0
 10
106.4271531635413
 20
177.0311427675345
 30
0.0
 10
108.153067861885
 20
174.0714545508652
 30
0.0
 10
107.0831312944149
 20
171.1617158776339
 30
0.0
 10
106.1301387015651
 20
168.922339563969
 30
0.0
 10
104.9077358216016
 20
166.0499048152891
 30
0.0
 10
104.7155224145228
 20
163.0846335122997
 30
0.0
 10
103.9694595514519
 20
160.1987704447377
 30
0.0
 10
102.6914263670226
 20
155.2551643461989
 30
0.0
 10
102.136717373598
 20
154.7336673582174
 30
0.0
 10
96.93184836093882
 20
154.1567822990461
 30
0.0
 10
94.00117995123668
 20
153.8319578941544
 30
0.0
 10
91.07241815183866
 20
153.5924751376302
 30
0.0
 10
88.1351234899335
 20
153.3762571942673
 30
0.0
 10
86.64734754412929
 20
153.2667443114467
 30
0.0
 10
85.44658417018282
 20
153.5411815902075
 30
0.0
 10
84.60415153302507
 20
154.8079001364404
 30
0.0
 10
84.16732158675983
 20
155.7202287947779
 30
0.0
 10
84.39191871775589
 20
156.6473623342175
 30
0.0
 10
84.58660915543446
 20
157.5034251513207
 30
0.0
 10
85.71723427492515
 20
162.4748307741394
 30
0.0
 10
86.91359056603797
 20
167.4313221201823
 30
0.0
 10
88.09497006856198
 20
172.3911304993154
 30
0.0
 10
88.615011052227
 20
174.5744102745738
 30
0.0
 10
89.86990965643957
 20
176.1631037288782
 30
0.0
 10
92.1642703191671
 20
176.4185465327201
 30
0.0
 10
96.32177994757213
 20
176.8814217655059
 30
0.0
 10
100.4991527046343
 20
177.1727658850895
 30
0.0
 10
104.6723996820226
 20
177.4788028854437
 30
0.0
 10
105.199217988106
 20
177.5174364883557
 30
0.0
 10
105.7511868803834
 20
177.2130938186064
 30
0.0
 10
106.4271531635413
 20
177.0311427675345
 30
0.0
  0
SPLINE
  5
4F
330
1F
100
AcDbEntity
  8
Calque 1
370
     0
100
AcDbSpline
210
0.0
220
0.0
230
1.0
 70
    11
 71
     3
 72
    44
 73
    40
 74
     0
 42
0.0000000001
 43
0.0000000001
 12
1.0
 22
0.0
 32
0.0
 13
1.0
 23
0.0
 33
0.0
 40
0.0
 40
0.0
 40
0.0
 40
0.0
 40
1.0
 40
1.0
 40
1.0
 40
2.0
 40
2.0
 40
2.0
 40
3.0
 40
3.0
 40
3.0
 40
4.0
 40
4.0
 40
4.0
 40
5.0
 40
5.0
 40
5.0
 40
6.0
 40
6.0
 40
6.0
 40
7.0
 40
7.0
 40
7.0
 40
8.0
 40
8.0
 40
8.0
 40
9.0
 40
9.0
 40
9.0
 40
10.0
 40
10.0
 40
10.0
 40
11.0
 40
11.0
 40
11.0
 40
12.0
 40
12.0
 40
12.0
 40
13.0
 40
13.0
 40
13.0
 40
13.0
 10
103.8396746085293
 20
169.0149286756843
 30
0.0
 10
104.6747126191126
 20
171.0429499441242
 30
0.0
 10
105.4428108963508
 20
172.8805133455742
 30
0.0
 10
105.2126423999994
 20
175.2285234696861
 30
0.0
 10
100.1957620377073
 20
175.7017691518227
 30
0.0
 10
95.4444526953317
 20
175.1894262374926
 30
0.0
 10
90.90042210702572
 20
173.7535220733833
 30
0.0
 10
87.89879237066026
 20
164.9924836337619
 30
0.0
 10
86.53373753288251
 20
158.1281057010323
 30
0.0
 10
87.38094450977682
 20
154.9464914310534
 30
0.0
 10
90.68851226945827
 20
155.9689138111425
 30
0.0
 10
94.20074370568908
 20
155.4281736033186
 30
0.0
 10
97.64842127611364
 20
156.1649638807589
 30
0.0
 10
101.5526851304461
 20
156.99932988935
 30
0.0
 10
102.5050630237994
 20
158.3880636810515
 30
0.0
 10
101.8709119343821
 20
162.6778404922965
 30
0.0
 10
100.9949703606683
 20
163.2755393806181
 30
0.0
 10
100.0392480853066
 20
163.4499785954655
 30
0.0
 10
98.98982581121535
 20
163.1426757308934
 30
0.0
 10
98.112342279442
 20
162.3476114202186
 30
0.0
 10
98.46320024988918
 20
160.8788312516625
 30
0.0
 10
97.10293277514222
 20
160.0665058665567
 30
0.0
 10
95.39437031429057
 20
159.6882989778166
 30
0.0
 10
93.42326865646474
 20
159.3615314973966
 30
0.0
 10
91.25907842617485
 20
160.3815680099472
 30
0.0
 10
91.36695818787436
 20
163.3831690950647
 30
0.0
 10
92.63962056568273
 20
166.1042770695136
 30
0.0
 10
93.21929781917902
 20
168.9611489813558
 30
0.0
 10
93.40594767487934
 20
169.8810376621068
 30
0.0
 10
94.25219613730364
 20
170.5136611190882
 30
0.0
 10
95.22589576828983
 20
170.5839712810304
 30
0.0
 10
96.7693072278781
 20
170.6954220300615
 30
0.0
 10
98.29927343830187
 20
171.2950587845936
 30
0.0
 10
99.18391978200923
 20
171.0920204151888
 30
0.0
 10
100.7647810270461
 20
170.1620595185291
 30
0.0
 10
99.40070554100915
 20
168.926053807539
 30
0.0
 10
100.6902200618038
 20
168.2834050185094
 30
0.0
 10
101.5383022040831
 20
168.480388858336
 30
0.0
 10
102.5228580533019
 20
168.7090713967931
 30
0.0
 10
103.8396746085293
 20
169.0149286756843
 30
0.0
  0
SPLINE
  5
50
330
1F
100
AcDbEntity
  8
Calque 1
370
     0
100
AcDbSpline
210
0.0
220
0.0
230
1.0
 70
    11
 71
     3
 72
    20
 73
    16
 74
     0
 42
0.0000000001
 43
0.0000000001
 12
1.0
 22
0.0
 32
0.0
 13
1.0
 23
0.0
 33
0.0
 40
0.0
 40
0.0
 40
0.0
 40
0.0
 40
1.0
 40
1.0
 40
1.0
 40
2.0
 40
2.0
 40
2.0
 40
3.0
 40
3.0
 40
3.0
 40
4.0
 40
4.0
 40
4.0
 40
5.0
 40
5.0
 40
5.0
 40
5.0
 10
95.70403299981247
 20
161.9400343978911
 30
0.0
 10
96.74006732723488
 20
162.7655211243429
 30
0.0
 10
96.49054621536796
 20
164.0940612492116
 30
0.0
 10
97.43650622922857
 20
164.6073014685277
 30
0.0
 10
99.03930912071282
 20
165.8102215000308
 30
0.0
 10
101.248528693807
 20
164.7337107735354
 30
0.0
 10
103.2871847844747
 20
166.3194218934161
 30
0.0
 10
101.3850388659709
 20
166.4407625322336
 30
0.0
 10
99.9857171359018
 20
166.5300267968821
 30
0.0
 10
98.58639540583273
 20
166.6192910615305
 30
0.0
 10
97.43753246482918
 20
166.9396172205278
 30
0.0
 10
97.92514023605783
 20
168.6854927222368
 30
0.0
 10
96.65271227754917
 20
168.812883983644
 30
0.0
 10
93.72624778728762
 20
165.9135457133406
 30
0.0
 10
93.39095525833704
 20
163.872011474605
 30
0.0
 10
95.70403299981247
 20
161.9400343978911
 30
0.0
  0
SPLINE
  5
51
330
1F
100
AcDbEntity
  8
Calque 1
370
     0
100
AcDbSpline
210
0.0
220
0.0
230
1.0
 70
    11
 71
     3
 72
    29
 73
    25
 74
     0
 42
0.0000000001
 43
0.0000000001
 12
1.0
 22
0.0
 32
0.0
 13
1.0
 23
0.0
 33
0.0
 40
0.0
 40
0.0
 40
0.0
 40
0.0
 40
1.0
 40
1.0
 40
1.0
 40
2.0
 40
2.0
 40
2.0
 40
3.0
 40
3.0
 40
3.0
 40
4.0
 40
4.0
 40
4.0
 40
5.0
 40
5.0
 40
5.0
 40
6.0
 40
6.0
 40
6.0
 40
7.0
 40
7.0
 40
7.0
 40
8.0
 40
8.0
 40
8.0
 40
8.0
 10
111.47483101249
 20
155.6064338527502
 30
0.0
 10
106.2742544776728
 20
155.5205269934047
 30
0.0
 10
105.2547961993947
 20
156.7601492732565
 30
0.0
 10
106.2566365649746
 20
160.9365478878958
 30
0.0
 10
107.2618004752917
 20
165.1268137064389
 30
0.0
 10
108.2776903708974
 20
169.3152419381383
 30
0.0
 10
109.3587071572637
 20
173.4863791418298
 30
0.0
 10
110.4609519135432
 20
177.7394302627962
 30
0.0
 10
111.6800937605824
 20
178.6530755761999
 30
0.0
 10
115.9616372450922
 20
178.9064541878756
 30
0.0
 10
118.8984005565846
 20
179.0802487496487
 30
0.0
 10
121.8239794628254
 20
179.5242043914587
 30
0.0
 10
124.7607271463646
 20
179.5963710240212
 30
0.0
 10
128.3216865410166
 20
179.6838764927574
 30
0.0
 10
129.2868689374488
 20
178.4777683587791
 30
0.0
 10
128.5620548815613
 20
175.0290469713065
 30
0.0
 10
127.5376112861773
 20
170.15472219445
 30
0.0
 10
126.4518019274624
 20
165.2943714125119
 30
0.0
 10
124.9891348933096
 20
160.5221154033828
 30
0.0
 10
124.3538325446655
 20
158.4493018160969
 30
0.0
 10
123.1463439414775
 20
157.1512935026787
 30
0.0
 10
121.0195357755052
 20
156.8471240427451
 30
0.0
 10
117.5474265047393
 20
156.3505510356344
 30
0.0
 10
114.0631274303916
 20
155.9392024672412
 30
0.0
 10
111.47483101249
 20
155.6064338527502
 30
0.0
  0
SPLINE
  5
52
330
1F
100
AcDbEntity
  8
Calque 1
370
     0
100
AcDbSpline
210
0.0
220
0.0
230
1.0
 70
    11
 71
     3
 72
    23
 73
    19
 74
     0
 42
0.0000000001
 43
0.0000000001
 12
1.0
 22
0.0
 32
0.0
 13
1.0
 23
0.0
 33
0.0
 40
0.0
 40
0.0
 40
0.0
 40
0.0
 40
1.0
 40
1.0
 40
1.0
 40
2.0
 40
2.0
 40
2.0
 40
3.0
 40
3.0
 40
3.0
 40
4.0
 40
4.0
 40
4.0
 40
5.0
 40
5.0
 40
5.0
 40
6.0
 40
6.0
 40
6.0
 40
6.0
 10
108.2013113537533
 20
157.982429734252
 30
0.0
 10
112.1714157753807
 20
157.1356811773216
 30
0.0
 10
115.7121682264027
 20
158.4381981552704
 30
0.0
 10
119.2934491696755
 20
158.4259354212397
 30
0.0
 10
121.6284060457846
 20
158.4179417231216
 30
0.0
 10
122.8129684414662
 20
159.7293588204801
 30
0.0
 10
123.3460379288744
 20
161.8029928753145
 30
0.0
 10
124.1643019362382
 20
164.9860787775634
 30
0.0
 10
124.929889322311
 20
168.1826841617551
 30
0.0
 10
125.7239768859043
 20
171.3720199429987
 30
0.0
 10
126.2138663383159
 20
173.3395623344579
 30
0.0
 10
126.6035128888788
 20
175.3164268000671
 30
0.0
 10
126.4896736676506
 20
177.8072451615265
 30
0.0
 10
121.7076137224786
 20
177.5465292257717
 30
0.0
 10
117.0464985079731
 20
177.6612084494907
 30
0.0
 10
112.4372420518684
 20
176.213856809582
 30
0.0
 10
110.4366817020531
 20
170.3096785608377
 30
0.0
 10
108.624459026895
 20
164.5088349440385
 30
0.0
 10
108.2013113537533
 20
157.982429734252
 30
0.0
  0
SPLINE
  5
53
330
1F
100
AcDbEntity
  8
Calque 1
370
     0
100
AcDbSpline
210
0.0
220
0.0
230
1.0
 70
    11
 71
     3
 72
    20
 73
    16
 74
     0
 42
0.0000000001
 43
0.0000000001
 12
1.0
 22
0.0
 32
0.0
 13
1.0
 23
0.0
 33
0.0
 40
0.0
 40
0.0
 40
0.0
 40
0.0
 40
1.0
 40
1.0
 40
1.0
 40
2.0
 40
2.0
 40
2.0
 40
3.0
 40
3.0
 40
3.0
 40
4.0
 40
4.0
 40
4.0
 40
5.0
 40
5.0
 40
5.0
 40
5.0
 10
80.95330796491017
 20
152.5837688912296
 30
0.0
 10
78.07365179947148
 20
152.2473537542995
 30
0.0
 10
75.95386058453558
 20
151.1848951624889
 30
0.0
 10
73.86402815609492
 20
151.7685471254437
 30
0.0
 10
72.79915244083884
 20
152.8358399641449
 30
0.0
 10
72.89631924054446
 20
153.9111942220954
 30
0.0
 10
73.21900522049154
 20
154.8558180459482
 30
0.0
 10
75.38243489038689
 20
161.1889966363495
 30
0.0
 10
76.4535774149206
 20
167.8051518796662
 30
0.0
 10
78.26994149770528
 20
174.3069013884468
 30
0.0
 10
80.74959498885423
 20
175.8323693529763
 30
0.0
 10
83.38609061942326
 20
175.5341463292772
 30
0.0
 10
86.49912682561835
 20
175.2637579927531
 30
0.0
 10
84.60110929144724
 20
167.5016908869494
 30
0.0
 10
82.79132718166505
 20
160.1004654090995
 30
0.0
 10
80.95330796491017
 20
152.5837688912296
 30
0.0
  0
SPLINE
  5
54
330
1F
100
AcDbEntity
  8
Calque 1
370
     0
100
AcDbSpline
210
0.0
220
0.0
230
1.0
 70
    11
 71
     3
 72
    17
 73
    13
 74
     0
 42
0.0000000001
 43
0.0000000001
 12
1.0
 22
0.0
 32
0.0
 13
1.0
 23
0.0
 33
0.0
 40
0.0
 40
0.0
 40
0.0
 40
0.0
 40
1.0
 40
1.0
 40
1.0
 40
2.0
 40
2.0
 40
2.0
 40
3.0
 40
3.0
 40
3.0
 40
4.0
 40
4.0
 40
4.0
 40
4.0
 10
79.51598686636761
 20
154.7969527551467
 30
0.0
 10
80.93650270578402
 20
160.8294677564737
 30
0.0
 10
82.3466467935204
 20
166.8179379760551
 30
0.0
 10
83.78367096094993
 20
172.9205560689431
 30
0.0
 10
82.20285139045527
 20
173.368136744756
 30
0.0
 10
81.14799840258874
 20
173.5734216324493
 30
0.0
 10
79.90845947182108
 20
172.3874696512526
 30
0.0
 10
78.69258386702363
 20
166.4473965984138
 30
0.0
 10
76.19857349610064
 20
160.4849156651871
 30
0.0
 10
75.57046781995548
 20
153.9062271376017
 30
0.0
 10
77.05548543200038
 20
153.8364457214132
 30
0.0
 10
78.1086115310261
 20
154.1565609030409
 30
0.0
 10
79.51598686636761
 20
154.7969527551467
 30
0.0
  0
SPLINE
  5
55
330
1F
100
AcDbEntity
  8
Calque 1
370
     0
100
AcDbSpline
210
0.0
220
0.0
230
1.0
 70
    11
 71
     3
 72
    17
 73
    13
 74
     0
 42
0.0000000001
 43
0.0000000001
 12
1.0
 22
0.0
 32
0.0
 13
1.0
 23
0.0
 33
0.0
 40
0.0
 40
0.0
 40
0.0
 40
0.0
 40
1.0
 40
1.0
 40
1.0
 40
2.0
 40
2.0
 40
2.0
 40
3.0
 40
3.0
 40
3.0
 40
4.0
 40
4.0
 40
4.0
 40
4.0
 10
121.7372547405897
 20
172.9236074268267
 30
0.0
 10
121.3719200760591
 20
169.1671280106418
 30
0.0
 10
120.3926568936948
 20
165.9767086913023
 30
0.0
 10
119.1685453575036
 20
162.896405233315
 30
0.0
 10
117.135786214551
 20
162.1189119514785
 30
0.0
 10
115.2314992664439
 20
162.4003323207101
 30
0.0
 10
112.8563420851031
 20
161.8844718145556
 30
0.0
 10
113.3093964515629
 20
165.8399276346145
 30
0.0
 10
114.3295527784219
 20
169.1102292372988
 30
0.0
 10
115.0341598906795
 20
172.3240527190496
 30
0.0
 10
117.2122433714622
 20
173.6692691724298
 30
0.0
 10
119.2613233069873
 20
173.5612370381851
 30
0.0
 10
121.7372547405897
 20
172.9236074268267
 30
0.0
  0
SPLINE
  5
56
330
1F
100
AcDbEntity
  8
Calque 1
370
     0
100
AcDbSpline
210
0.0
220
0.0
230
1.0
 70
    11
 71
     3
 72
    14
 73
    10
 74
     0
 42
0.0000000001
 43
0.0000000001
 12
1.0
 22
0.0
 32
0.0
 13
1.0
 23
0.0
 33
0.0
 40
0.0
 40
0.0
 40
0.0
 40
0.0
 40
1.0
 40
1.0
 40
1.0
 40
2.0
 40
2.0
 40
2.0
 40
3.0
 40
3.0
 40
3.0
 40
3.0
 10
117.5467545027475
 20
164.5014481314406
 30
0.0
 10
119.6411711308252
 20
169.5680722691186
 30
0.0
 10
119.6157913346494
 20
170.0463853151161
 30
0.0
 10
117.1161418772407
 20
170.8331446709364
 30
0.0
 10
116.0521699786176
 20
168.9625476831772
 30
0.0
 10
115.7939440967568
 20
166.9365541416789
 30
0.0
 10
115.7902871556822
 20
164.9462926130948
 30
0.0
 10
116.4573194588641
 20
164.4898261434955
 30
0.0
 10
116.9609406729177
 20
164.292937373718
 30
0.0
 10
117.5467545027475
 20
164.5014481314406
 30
0.0
  0
SPLINE
  5
57
330
1F
100
AcDbEntity
  8
Calque 1
370
     0
100
AcDbSpline
210
0.0
220
0.0
230
1.0
 70
    11
 71
     3
 72
    89
 73
    85
 74
     0
 42
0.0000000001
 43
0.0000000001
 12
1.0
 22
0.0
 32
0.0
 13
1.0
 23
0.0
 33
0.0
 40
0.0
 40
0.0
 40
0.0
 40
0.0
 40
1.0
 40
1.0
 40
1.0
 40
2.0
 40
2.0
 40
2.0
 40
3.0
 40
3.0
 40
3.0
 40
4.0
 40
4.0
 40
4.0
 40
5.0
 40
5.0
 40
5.0
 40
6.0
 40
6.0
 40
6.0
 40
7.0
 40
7.0
 40
7.0
 40
8.0
 40
8.0
 40
8.0
 40
9.0
 40
9.0
 40
9.0
 40
10.0
 40
10.0
 40
10.0
 40
11.0
 40
11.0
 40
11.0
 40
12.0
 40
12.0
 40
12.0
 40
13.0
 40
13.0
 40
13.0
 40
14.0
 40
14.0
 40
14.0
 40
15.0
 40
15.0
 40
15.0
 40
16.0
 40
16.0
 40
16.0
 40
17.0
 40
17.0
 40
17.0
 40
18.0
 40
18.0
 40
18.0
 40
19.0
 40
19.0
 40
19.0
 40
20.0
 40
20.0
 40
20.0
 40
21.0
 40
21.0
 40
21.0
 40
22.0
 40
22.0
 40
22.0
 40
23.0
 40
23.0
 40
23.0
 40
24.0
 40
24.0
 40
24.0
 40
25.0
 40
25.0
 40
25.0
 40
26.0
 40
26.0
 40
26.0
 40
27.0
 40
27.0
 40
27.0
 40
28.0
 40
28.0
 40
28.0
 40
28.0
 10
144.5175805116819
 20
105.1043856573378
 30
0.0
 10
141.9862271463244
 20
104.2346197298397
 30
0.0
 10
139.5088527317001
 20
104.0728756223987
 30
0.0
 10
137.0519092613693
 20
103.8202080825981
 30
0.0
 10
128.6940798311253
 20
102.9607149297431
 30
0.0
 10
120.3350262112049
 20
102.1130964167457
 30
0.0
 10
111.9763893367065
 20
101.2614484964521
 30
0.0
 10
106.7797249995351
 20
100.731968228988
 30
0.0
 10
101.5822792646977
 20
100.2100492862675
 30
0.0
 10
96.38643799973386
 20
99.67265085579277
 30
0.0
 10
90.74037102785898
 20
99.08868112445452
 30
0.0
 10
85.09327261106591
 20
98.5132286276696
 30
0.0
 10
79.45114648808391
 20
97.8929343235206
 30
0.0
 10
72.90453693932675
 20
97.1731967478003
 30
0.0
 10
66.36603308901947
 20
96.37836946108392
 30
0.0
 10
59.81611432114862
 20
95.69141151743149
 30
0.0
 10
58.62393590288735
 20
95.5663748676561
 30
0.0
 10
57.30021960627364
 20
95.27963318032235
 30
0.0
 10
55.78304357330482
 20
96.73828903979233
 30
0.0
 10
57.34429824858486
 20
103.0881843309174
 30
0.0
 10
58.98053323918787
 20
109.7430435029363
 30
0.0
 10
60.5792116533278
 20
116.2451472453253
 30
0.0
 10
62.96813054988746
 20
116.9778117430922
 30
0.0
 10
64.91227659291233
 20
117.2316474724013
 30
0.0
 10
67.07820413067857
 20
116.9186508235068
 30
0.0
 10
67.1052040246807
 20
111.9073014543574
 30
0.0
 10
64.47243045165828
 20
107.6205095821942
 30
0.0
 10
64.27007710754023
 20
102.6777005092742
 30
0.0
 10
65.48219418956647
 20
102.4599119566034
 30
0.0
 10
66.67422414227138
 20
102.3157414826588
 30
0.0
 10
68.35784438964004
 20
103.3160294715433
 30
0.0
 10
69.40375818821327
 20
108.9663628746718
 30
0.0
 10
71.42726297814677
 20
114.8101885723918
 30
0.0
 10
72.39278137557493
 20
121.2025111520948
 30
0.0
 10
65.88971651405727
 20
122.2282167047089
 30
0.0
 10
60.20535454492569
 20
120.2732183504392
 30
0.0
 10
54.42770281083857
 20
119.9657917645703
 30
0.0
 10
53.85271524566497
 20
118.589958848326
 30
0.0
 10
53.37871942176962
 20
117.4557796717874
 30
0.0
 10
52.89652934102172
 20
116.3019913208319
 30
0.0
 10
53.89099461496852
 20
115.6345813421118
 30
0.0
 10
55.33440410365487
 20
116.6666956579121
 30
0.0
 10
56.09363872670767
 20
115.1387272208531
 30
0.0
 10
56.29608062922774
 20
114.6207751736136
 30
0.0
 10
55.98764473804054
 20
113.9782553151987
 30
0.0
 10
55.8192535411242
 20
113.3263638941153
 30
0.0
 10
54.22699691346536
 20
107.1622667352354
 30
0.0
 10
52.62443234826898
 20
101.0008237237589
 30
0.0
 10
51.03927146257733
 20
94.83490851297654
 30
0.0
 10
50.73639912276861
 20
93.65680567132976
 30
0.0
 10
50.12812662170343
 20
92.44890032272102
 30
0.0
 10
51.4857640421414
 20
90.89936270543487
 30
0.0
 10
84.00780185800583
 20
94.29588998467582
 30
0.0
 10
116.8055883983798
 20
97.7212169772076
 30
0.0
 10
149.8910647219219
 20
101.1765913146373
 30
0.0
 10
149.1370680678868
 20
107.6272374160944
 30
0.0
 10
146.7421050603842
 20
113.247518265007
 30
0.0
 10
146.0266156833057
 20
119.5185275548117
 30
0.0
 10
149.5015327763497
 20
121.9597115365582
 30
0.0
 10
152.7427702928653
 20
124.7345809727229
 30
0.0
 10
151.8601139085462
 20
129.7586397749027
 30
0.0
 10
150.5606183349045
 20
129.9706264499069
 30
0.0
 10
149.4632442907401
 20
129.9618279121934
 30
0.0
 10
148.5406741136668
 20
129.1808339688155
 30
0.0
 10
147.07537637404
 20
124.4007626807019
 30
0.0
 10
144.1369044063186
 20
121.8328477185753
 30
0.0
 10
140.3650041072053
 20
122.1004790236698
 30
0.0
 10
139.769829133343
 20
124.0399431923483
 30
0.0
 10
141.3285507778577
 20
125.7886213070174
 30
0.0
 10
140.9745880540194
 20
127.7404725821887
 30
0.0
 10
140.1430454956593
 20
128.665435789613
 30
0.0
 10
139.156192337304
 20
128.989053586276
 30
0.0
 10
137.6012943320328
 20
128.3869052894141
 30
0.0
 10
136.7874217795495
 20
122.2082506920251
 30
0.0
 10
133.6417960813848
 20
116.3690977523451
 30
0.0
 10
133.5413291788718
 20
109.8053573621014
 30
0.0
 10
136.6760048910837
 20
109.6973369488218
 30
0.0
 10
136.8655094529219
 20
109.7667589220843
 30
0.0
 10
137.6568673340035
 20
112.667515429151
 30
0.0
 10
138.2272772111872
 20
114.7583610698974
 30
0.0
 10
138.9198247528062
 20
116.566572570372
 30
0.0
 10
141.8343546960571
 20
116.5713286774958
 30
0.0
 10
143.477206822557
 20
112.9606463447294
 30
0.0
 10
144.2675853518982
 20
109.1742980027804
 30
0.0
 10
144.5175805116819
 20
105.1043856573378
 30
0.0
  0
SPLINE
  5
58
330
1F
100
AcDbEntity
  8
Calque 1
370
     0
100
AcDbSpline
210
0.0
220
0.0
230
1.0
 70
    11
 71
     3
 72
    44
 73
    40
 74
     0
 42
0.0000000001
 43
0.0000000001
 12
1.0
 22
0.0
 32
0.0
 13
1.0
 23
0.0
 33
0.0
 40
0.0
 40
0.0
 40
0.0
 40
0.0
 40
1.0
 40
1.0
 40
1.0
 40
2.0
 40
2.0
 40
2.0
 40
3.0
 40
3.0
 40
3.0
 40
4.0
 40
4.0
 40
4.0
 40
5.0
 40
5.0
 40
5.0
 40
6.0
 40
6.0
 40
6.0
 40
7.0
 40
7.0
 40
7.0
 40
8.0
 40
8.0
 40
8.0
 40
9.0
 40
9.0
 40
9.0
 40
10.0
 40
10.0
 40
10.0
 40
11.0
 40
11.0
 40
11.0
 40
12.0
 40
12.0
 40
12.0
 40
13.0
 40
13.0
 40
13.0
 40
13.0
 10
103.8396746085293
 20
118.585777068486
 30
0.0
 10
104.6747126191126
 20
120.6137983369263
 30
0.0
 10
105.4428108963508
 20
122.4513617383762
 30
0.0
 10
105.2126423999994
 20
124.7993718624881
 30
0.0
 10
100.1957620377073
 20
125.2726175446248
 30
0.0
 10
95.4444526953317
 20
124.7602746302946
 30
0.0
 10
90.90042210702572
 20
123.3243704661853
 30
0.0
 10
87.89879237066026
 20
114.5633320265636
 30
0.0
 10
86.53373753288251
 20
107.6989540938343
 30
0.0
 10
87.38094450977682
 20
104.5173398238554
 30
0.0
 10
90.68851226945827
 20
105.5397622039445
 30
0.0
 10
94.20074370568908
 20
104.9990219961206
 30
0.0
 10
97.64842127611364
 20
105.735812273561
 30
0.0
 10
101.5526851304461
 20
106.5701782821524
 30
0.0
 10
102.5050630237994
 20
107.9589120738535
 30
0.0
 10
101.8709119343821
 20
112.2486888850989
 30
0.0
 10
100.9949703606683
 20
112.8463877734201
 30
0.0
 10
100.0392480853066
 20
113.0208269882672
 30
0.0
 10
98.98982581121535
 20
112.7135241236954
 30
0.0
 10
98.112342279442
 20
111.9184598130207
 30
0.0
 10
98.46320024988918
 20
110.4496796444643
 30
0.0
 10
97.10293277514222
 20
109.6373542593584
 30
0.0
 10
95.39437031429057
 20
109.2591473706184
 30
0.0
 10
93.42326865646474
 20
108.9323798901986
 30
0.0
 10
91.25907842617485
 20
109.952416402749
 30
0.0
 10
91.36695818787436
 20
112.9540174878667
 30
0.0
 10
92.63962056568273
 20
115.6751254623156
 30
0.0
 10
93.21929781917902
 20
118.5319973741575
 30
0.0
 10
93.40594767487934
 20
119.4518860549088
 30
0.0
 10
94.25219613730364
 20
120.0845095118899
 30
0.0
 10
95.22589576828983
 20
120.1548196738328
 30
0.0
 10
96.7693072278781
 20
120.2662704228633
 30
0.0
 10
98.29927343830187
 20
120.8659071773956
 30
0.0
 10
99.18391978200923
 20
120.6628688079912
 30
0.0
 10
100.7647810270461
 20
119.7329079113309
 30
0.0
 10
99.40070554100915
 20
118.4969022003411
 30
0.0
 10
100.6902200618038
 20
117.8542534113118
 30
0.0
 10
101.5383022040831
 20
118.051237251138
 30
0.0
 10
102.5228580533019
 20
118.2799197895952
 30
0.0
 10
103.8396746085293
 20
118.585777068486
 30
0.0
  0
SPLINE
  5
59
330
1F
100
AcDbEntity
  8
Calque 1
370
     0
100
AcDbSpline
210
0.0
220
0.0
230
1.0
 70
    11
 71
     3
 72
    20
 73
    16
 74
     0
 42
0.0000000001
 43
0.0000000001
 12
1.0
 22
0.0
 32
0.0
 13
1.0
 23
0.0
 33
0.0
 40
0.0
 40
0.0
 40
0.0
 40
0.0
 40
1.0
 40
1.0
 40
1.0
 40
2.0
 40
2.0
 40
2.0
 40
3.0
 40
3.0
 40
3.0
 40
4.0
 40
4.0
 40
4.0
 40
5.0
 40
5.0
 40
5.0
 40
5.0
 10
95.70403299981247
 20
111.5108827906931
 30
0.0
 10
96.74006732723488
 20
112.336369517145
 30
0.0
 10
96.49054621536796
 20
113.664909642014
 30
0.0
 10
97.43650622922857
 20
114.1781498613297
 30
0.0
 10
99.03930912071282
 20
115.3810698928326
 30
0.0
 10
101.248528693807
 20
114.3045591663375
 30
0.0
 10
103.2871847844747
 20
115.8902702862181
 30
0.0
 10
101.3850388659709
 20
116.0116109250356
 30
0.0
 10
99.9857171359018
 20
116.1008751896841
 30
0.0
 10
98.58639540583273
 20
116.1901394543326
 30
0.0
 10
97.43753246482918
 20
116.5104656133302
 30
0.0
 10
97.92514023605783
 20
118.2563411150385
 30
0.0
 10
96.65271227754917
 20
118.3837323764464
 30
0.0
 10
93.72624778728762
 20
115.4843941061427
 30
0.0
 10
93.39095525833704
 20
113.4428598674073
 30
0.0
 10
95.70403299981247
 20
111.5108827906931
 30
0.0
  0
SPLINE
  5
5A
330
1F
100
AcDbEntity
  8
Calque 1
370
     0
100
AcDbSpline
210
0.0
220
0.0
230
1.0
 70
    11
 71
     3
 72
    59
 73
    55
 74
     0
 42
0.0000000001
 43
0.0000000001
 12
1.0
 22
0.0
 32
0.0
 13
1.0
 23
0.0
 33
0.0
 40
0.0
 40
0.0
 40
0.0
 40
0.0
 40
1.0
 40
1.0
 40
1.0
 40
2.0
 40
2.0
 40
2.0
 40
3.0
 40
3.0
 40
3.0
 40
4.0
 40
4.0
 40
4.0
 40
5.0
 40
5.0
 40
5.0
 40
6.0
 40
6.0
 40
6.0
 40
7.0
 40
7.0
 40
7.0
 40
8.0
 40
8.0
 40
8.0
 40
9.0
 40
9.0
 40
9.0
 40
10.0
 40
10.0
 40
10.0
 40
11.0
 40
11.0
 40
11.0
 40
12.0
 40
12.0
 40
12.0
 40
13.0
 40
13.0
 40
13.0
 40
14.0
 40
14.0
 40
14.0
 40
15.0
 40
15.0
 40
15.0
 40
16.0
 40
16.0
 40
16.0
 40
17.0
 40
17.0
 40
17.0
 40
18.0
 40
18.0
 40
18.0
 40
18.0
 10
45.3657722233258
 20
86.29190346396081
 30
0.0
 10
63.99443908103336
 20
88.20035786628421
 30
0.0
 10
82.17002747918623
 20
89.91510378732941
 30
0.0
 10
100.3081218126893
 20
91.96206353052212
 30
0.0
 10
118.4080631028447
 20
94.00472037723732
 30
0.0
 10
136.5890926334087
 20
95.38736447646549
 30
0.0
 10
154.830206435132
 20
97.94304275115078
 30
0.0
 10
154.1782915721186
 20
105.0740674279162
 30
0.0
 10
151.1844237192305
 20
111.2684802115588
 30
0.0
 10
150.7501333153786
 20
118.1014446558058
 30
0.0
 10
156.1727101362828
 20
122.1469708824374
 30
0.0
 10
155.8842493740849
 20
128.3772166095266
 30
0.0
 10
157.5726830310733
 20
134.5660310044783
 30
0.0
 10
149.6634487912781
 20
133.646579580838
 30
0.0
 10
142.2222300785783
 20
133.6656782421125
 30
0.0
 10
135.1321818953919
 20
132.2377365202143
 30
0.0
 10
132.9784519751838
 20
130.2981740256631
 30
0.0
 10
134.2480981580034
 20
126.935048891964
 30
0.0
 10
131.4475064130195
 20
125.0799886944541
 30
0.0
 10
131.0460347111182
 20
126.8180137542836
 30
0.0
 10
130.3123960709287
 20
128.0759083673786
 30
0.0
 10
129.7274834530737
 20
129.4000980607447
 30
0.0
 10
129.0374259653483
 20
130.9623151574825
 30
0.0
 10
127.7532249486793
 20
131.8553074794222
 30
0.0
 10
126.228191962184
 20
131.5788001480117
 30
0.0
 10
120.4038986014425
 20
130.5227822264594
 30
0.0
 10
114.0692275415005
 20
131.8332036929592
 30
0.0
 10
108.9384298182133
 20
127.7299282718578
 30
0.0
 10
105.754843821458
 20
129.653256578744
 30
0.0
 10
102.4673058886022
 20
129.1412705026816
 30
0.0
 10
99.19221301589903
 20
128.7930471446959
 30
0.0
 10
93.552605598059
 20
128.1934155994822
 30
0.0
 10
87.92113513457616
 20
127.4819478157216
 30
0.0
 10
82.26815539802048
 20
127.0596245171162
 30
0.0
 10
79.81394161020135
 20
126.8762747642232
 30
0.0
 10
77.53466192241812
 20
126.6917294729025
 30
0.0
 10
76.03961116434813
 20
124.6070998505844
 30
0.0
 10
74.04491650634164
 20
124.7314423587667
 30
0.0
 10
72.59601248973753
 20
126.0760753685564
 30
0.0
 10
70.62195714873589
 20
125.8297358475179
 30
0.0
 10
65.34527248129889
 20
125.17126766275
 30
0.0
 10
60.04188745563143
 20
124.7204298610012
 30
0.0
 10
54.7447549136173
 20
124.234589350826
 30
0.0
 10
51.81568706680051
 20
123.9659409264366
 30
0.0
 10
50.72484420479
 20
123.214666140937
 30
0.0
 10
49.9123573308333
 20
120.3387854285518
 30
0.0
 10
49.1165598086822
 20
117.5219757750202
 30
0.0
 10
48.481758856873
 20
114.6596835680382
 30
0.0
 10
47.78056905707281
 20
111.8345767736284
 30
0.0
 10
48.69133557124383
 20
111.129323705968
 30
0.0
 10
49.92314387444079
 20
112.3180691838185
 30
0.0
 10
50.89164655978667
 20
110.8106358774098
 30
0.0
 10
49.58564585057947
 20
102.9036546675498
 30
0.0
 10
46.46996982260424
 20
95.03792344045156
 30
0.0
 10
45.3657722233258
 20
86.29190346396081
 30
0.0
  0
SPLINE
  5
5B
330
1F
100
AcDbEntity
  8
Calque 1
370
     0
100
AcDbSpline
210
0.0
220
0.0
230
1.0
 70
    11
 71
     3
 72
    92
 73
    88
 74
     0
 42
0.0000000001
 43
0.0000000001
 12
1.0
 22
0.0
 32
0.0
 13
1.0
 23
0.0
 33
0.0
 40
0.0
 40
0.0
 40
0.0
 40
0.0
 40
1.0
 40
1.0
 40
1.0
 40
2.0
 40
2.0
 40
2.0
 40
3.0
 40
3.0
 40
3.0
 40
4.0
 40
4.0
 40
4.0
 40
5.0
 40
5.0
 40
5.0
 40
6.0
 40
6.0
 40
6.0
 40
7.0
 40
7.0
 40
7.0
 40
8.0
 40
8.0
 40
8.0
 40
9.0
 40
9.0
 40
9.0
 40
10.0
 40
10.0
 40
10.0
 40
11.0
 40
11.0
 40
11.0
 40
12.0
 40
12.0
 40
12.0
 40
13.0
 40
13.0
 40
13.0
 40
14.0
 40
14.0
 40
14.0
 40
15.0
 40
15.0
 40
15.0
 40
16.0
 40
16.0
 40
16.0
 40
17.0
 40
17.0
 40
17.0
 40
18.0
 40
18.0
 40
18.0
 40
19.0
 40
19.0
 40
19.0
 40
20.0
 40
20.0
 40
20.0
 40
21.0
 40
21.0
 40
21.0
 40
22.0
 40
22.0
 40
22.0
 40
23.0
 40
23.0
 40
23.0
 40
24.0
 40
24.0
 40
24.0
 40
25.0
 40
25.0
 40
25.0
 40
26.0
 40
26.0
 40
26.0
 40
27.0
 40
27.0
 40
27.0
 40
28.0
 40
28.0
 40
28.0
 40
29.0
 40
29.0
 40
29.0
 40
29.0
 10
136.1083246964116
 20
130.5463836917814
 30
0.0
 10
139.0041636075031
 20
130.8023871484478
 30
0.0
 10
141.2959508672529
 20
131.7934168773258
 30
0.0
 10
143.5894363645945
 20
130.6658730692959
 30
0.0
 10
144.3529452328777
 20
128.8905512477273
 30
0.0
 10
143.0963952749319
 20
127.4805504162296
 30
0.0
 10
143.0401033871091
 20
125.923424125282
 30
0.0
 10
144.8757627829139
 20
126.0538485119617
 30
0.0
 10
144.8757627829139
 20
126.0538485119617
 30
0.0
 10
147.3878729284293
 20
131.3429658674209
 30
0.0
 10
149.6096157014426
 20
132.1252022330879
 30
0.0
 10
151.9110818736082
 20
133.0082382464394
 30
0.0
 10
154.5729494863764
 20
131.9253715010996
 30
0.0
 10
154.2810297371789
 20
126.2495860225116
 30
0.0
 10
152.9345252799806
 20
121.2699014914271
 30
0.0
 10
148.1433907032528
 20
117.9590740011501
 30
0.0
 10
149.6459559022059
 20
111.7783708395483
 30
0.0
 10
151.0589208355152
 20
105.9662125845535
 30
0.0
 10
152.6124331622592
 20
99.57591382480305
 30
0.0
 10
140.7616936553932
 20
98.31731660497395
 30
0.0
 10
129.2183455715014
 20
97.08700077131837
 30
0.0
 10
117.6739608333737
 20
95.86653054824801
 30
0.0
 10
106.1567843619589
 20
94.64893586858635
 30
0.0
 10
94.64778651944245
 20
93.34323078816303
 30
0.0
 10
83.11819884844026
 20
92.25664524110002
 30
0.0
 10
71.5344134353587
 20
91.16495456262244
 30
0.0
 10
59.99484080452071
 20
89.52522281746647
 30
0.0
 10
47.83086827596628
 20
88.8102595814821
 30
0.0
 10
49.3370858578412
 20
97.45907108372536
 30
0.0
 10
52.11609149231551
 20
105.251950001809
 30
0.0
 10
53.59897849339274
 20
113.1360414693875
 30
0.0
 10
52.87345466795929
 20
114.3255839728571
 30
0.0
 10
51.42842573261135
 20
113.6868122185775
 30
0.0
 10
50.74717524774086
 20
114.946818558864
 30
0.0
 10
50.86303959125242
 20
117.0414565829469
 30
0.0
 10
51.68728129075741
 20
119.1193492550589
 30
0.0
 10
52.70760171112655
 20
121.1757417704039
 30
0.0
 10
55.80431972940708
 20
122.6329833000993
 30
0.0
 10
59.19429238456344
 20
122.3111073690652
 30
0.0
 10
62.41526174796559
 20
122.8627090044403
 30
0.0
 10
64.63743819668323
 20
123.2432626908354
 30
0.0
 10
66.92779549870461
 20
123.3021813771437
 30
0.0
 10
69.18651140459049
 20
123.5771916808593
 30
0.0
 10
73.37091413598347
 20
124.0866681680871
 30
0.0
 10
74.87037718620475
 20
122.3192430210926
 30
0.0
 10
73.89621913525498
 20
118.2515042634893
 30
0.0
 10
72.73303577970165
 20
113.3944861425945
 30
0.0
 10
71.42031114358272
 20
108.5705537011868
 30
0.0
 10
70.38146638922355
 20
103.6878002481787
 30
0.0
 10
69.94935608485783
 20
101.6568096686094
 30
0.0
 10
68.87105335304938
 20
100.7283138925729
 30
0.0
 10
66.97864625411655
 20
100.5068605848506
 30
0.0
 10
65.3207938970974
 20
100.3128525678001
 30
0.0
 10
63.6540622579393
 20
100.194744310659
 30
0.0
 10
61.54396428104381
 20
100.0023225308692
 30
0.0
 10
62.15636386411258
 20
105.174971913121
 30
0.0
 10
64.17042546325825
 20
109.7923913701716
 30
0.0
 10
64.64425458898512
 20
114.5720914943939
 30
0.0
 10
62.79780148676067
 20
115.225824409309
 30
0.0
 10
62.28612406277563
 20
114.2920646176655
 30
0.0
 10
61.97990864328824
 20
113.2875857326358
 30
0.0
 10
60.49472433307454
 20
108.4157015211545
 30
0.0
 10
59.27160517191797
 20
103.4774792525306
 30
0.0
 10
58.21673525376848
 20
98.5119445308389
 30
0.0
 10
59.54605677630286
 20
97.34446348812536
 30
0.0
 10
60.97570064278162
 20
97.70428148513723
 30
0.0
 10
62.24806608947729
 20
97.89097041072111
 30
0.0
 10
74.84094714546298
 20
99.73866853989271
 30
0.0
 10
87.55427413993893
 20
100.4224540090231
 30
0.0
 10
100.187640711304
 20
101.8792449327312
 30
0.0
 10
112.7053448002207
 20
103.3226921889706
 30
0.0
 10
125.244104951564
 20
104.5836882996334
 30
0.0
 10
137.7742020074562
 20
105.9193235153049
 30
0.0
 10
139.1303541211646
 20
106.0638820834236
 30
0.0
 10
140.5020195831925
 20
106.1369036952653
 30
0.0
 10
141.6699694645055
 20
107.217071362835
 30
0.0
 10
142.3330635234533
 20
109.3708507715616
 30
0.0
 10
141.3362814054284
 20
111.2977279261786
 30
0.0
 10
140.7797178948775
 20
113.6004391252916
 30
0.0
 10
138.9810654925112
 20
112.1970384994085
 30
0.0
 10
139.6231243263036
 20
110.1959207525921
 30
0.0
 10
138.5309908558156
 20
108.4874129895772
 30
0.0
 10
136.3728225968674
 20
107.6907103484636
 30
0.0
 10
133.8618376639908
 20
107.4785791148907
 30
0.0
 10
130.7137531678387
 20
107.4966033543749
 30
0.0
 10
131.8714302745093
 20
115.4788357640818
 30
0.0
 10
134.3296239811048
 20
122.8281555996712
 30
0.0
 10
136.1083246964116
 20
130.5463836917814
 30
0.0
  0
SPLINE
  5
5C
330
1F
100
AcDbEntity
  8
Calque 1
370
     0
100
AcDbSpline
210
0.0
220
0.0
230
1.0
 70
    11
 71
     3
 72
    35
 73
    31
 74
     0
 42
0.0000000001
 43
0.0000000001
 12
1.0
 22
0.0
 32
0.0
 13
1.0
 23
0.0
 33
0.0
 40
0.0
 40
0.0
 40
0.0
 40
0.0
 40
1.0
 40
1.0
 40
1.0
 40
2.0
 40
2.0
 40
2.0
 40
3.0
 40
3.0
 40
3.0
 40
4.0
 40
4.0
 40
4.0
 40
5.0
 40
5.0
 40
5.0
 40
6.0
 40
6.0
 40
6.0
 40
7.0
 40
7.0
 40
7.0
 40
8.0
 40
8.0
 40
8.0
 40
9.0
 40
9.0
 40
9.0
 40
10.0
 40
10.0
 40
10.0
 40
10.0
 10
106.4271531635413
 20
126.6019911603366
 30
0.0
 10
108.153067861885
 20
123.6423029436673
 30
0.0
 10
107.0831312944149
 20
120.7325642704356
 30
0.0
 10
106.1301387015651
 20
118.493187956771
 30
0.0
 10
104.9077358216016
 20
115.6207532080912
 30
0.0
 10
104.7155224145228
 20
112.6554819051021
 30
0.0
 10
103.9694595514519
 20
109.7696188375398
 30
0.0
 10
102.6914263670226
 20
104.8260127390013
 30
0.0
 10
102.136717373598
 20
104.3045157510195
 30
0.0
 10
96.93184836093882
 20
103.7276306918478
 30
0.0
 10
94.00117995123668
 20
103.4028062869565
 30
0.0
 10
91.07241815183866
 20
103.1633235304326
 30
0.0
 10
88.1351234899335
 20
102.9471055870694
 30
0.0
 10
86.64734754412929
 20
102.8375927042487
 30
0.0
 10
85.44658417018282
 20
103.1120299830093
 30
0.0
 10
84.60415153302507
 20
104.3787485292421
 30
0.0
 10
84.16732158675983
 20
105.29107718758
 30
0.0
 10
84.39191871775589
 20
106.2182107270199
 30
0.0
 10
84.58660915543446
 20
107.0742735441228
 30
0.0
 10
85.71723427492515
 20
112.0456791669411
 30
0.0
 10
86.91359056603797
 20
117.002170512984
 30
0.0
 10
88.09497006856198
 20
121.9619788921172
 30
0.0
 10
88.615011052227
 20
124.1452586673758
 30
0.0
 10
89.86990965643957
 20
125.7339521216802
 30
0.0
 10
92.1642703191671
 20
125.9893949255219
 30
0.0
 10
96.32177994757213
 20
126.452270158308
 30
0.0
 10
100.4991527046343
 20
126.7436142778916
 30
0.0
 10
104.6723996820226
 20
127.0496512782454
 30
0.0
 10
105.199217988106
 20
127.0882848811574
 30
0.0
 10
105.7511868803834
 20
126.7839422114088
 30
0.0
 10
106.4271531635413
 20
126.6019911603366
 30
0.0
  0
SPLINE
  5
5D
330
1F
100
AcDbEntity
  8
Calque 1
370
     0
100
AcDbSpline
210
0.0
220
0.0
230
1.0
 70
    11
 71
     3
 72
    29
 73
    25
 74
     0
 42
0.0000000001
 43
0.0000000001
 12
1.0
 22
0.0
 32
0.0
 13
1.0
 23
0.0
 33
0.0
 40
0.0
 40
0.0
 40
0.0
 40
0.0
 40
1.0
 40
1.0
 40
1.0
 40
2.0
 40
2.0
 40
2.0
 40
3.0
 40
3.0
 40
3.0
 40
4.0
 40
4.0
 40
4.0
 40
5.0
 40
5.0
 40
5.0
 40
6.0
 40
6.0
 40
6.0
 40
7.0
 40
7.0
 40
7.0
 40
8.0
 40
8.0
 40
8.0
 40
8.0
 10
111.47483101249
 20
105.1772822455522
 30
0.0
 10
106.2742544776728
 20
105.0913753862068
 30
0.0
 10
105.2547961993947
 20
106.3309976660585
 30
0.0
 10
106.2566365649746
 20
110.5073962806982
 30
0.0
 10
107.2618004752917
 20
114.697662099241
 30
0.0
 10
108.2776903708974
 20
118.8860903309404
 30
0.0
 10
109.3587071572637
 20
123.0572275346318
 30
0.0
 10
110.4609519135432
 20
127.3102786555982
 30
0.0
 10
111.6800937605824
 20
128.223923969002
 30
0.0
 10
115.9616372450922
 20
128.4773025806777
 30
0.0
 10
118.8984005565846
 20
128.6510971424508
 30
0.0
 10
121.8239794628254
 20
129.0950527842607
 30
0.0
 10
124.7607271463646
 20
129.1672194168232
 30
0.0
 10
128.3216865410166
 20
129.2547248855595
 30
0.0
 10
129.2868689374488
 20
128.0486167515814
 30
0.0
 10
128.5620548815613
 20
124.5998953641086
 30
0.0
 10
127.5376112861773
 20
119.7255705872521
 30
0.0
 10
126.4518019274624
 20
114.8652198053139
 30
0.0
 10
124.9891348933096
 20
110.0929637961849
 30
0.0
 10
124.3538325446655
 20
108.020150208899
 30
0.0
 10
123.1463439414775
 20
106.7221418954811
 30
0.0
 10
121.0195357755052
 20
106.4179724355474
 30
0.0
 10
117.5474265047393
 20
105.9213994284368
 30
0.0
 10
114.0631274303916
 20
105.5100508600432
 30
0.0
 10
111.47483101249
 20
105.1772822455522
 30
0.0
  0
SPLINE
  5
5E
330
1F
100
AcDbEntity
  8
Calque 1
370
     0
100
AcDbSpline
210
0.0
220
0.0
230
1.0
 70
    11
 71
     3
 72
    20
 73
    16
 74
     0
 42
0.0000000001
 43
0.0000000001
 12
1.0
 22
0.0
 32
0.0
 13
1.0
 23
0.0
 33
0.0
 40
0.0
 40
0.0
 40
0.0
 40
0.0
 40
1.0
 40
1.0
 40
1.0
 40
2.0
 40
2.0
 40
2.0
 40
3.0
 40
3.0
 40
3.0
 40
4.0
 40
4.0
 40
4.0
 40
5.0
 40
5.0
 40
5.0
 40
5.0
 10
80.95330796491017
 20
102.1546172840317
 30
0.0
 10
78.07365179947148
 20
101.8182021471019
 30
0.0
 10
75.95386058453558
 20
100.7557435552909
 30
0.0
 10
73.86402815609492
 20
101.339395518246
 30
0.0
 10
72.79915244083884
 20
102.4066883569466
 30
0.0
 10
72.89631924054446
 20
103.4820426148972
 30
0.0
 10
73.21900522049154
 20
104.4266664387503
 30
0.0
 10
75.38243489038689
 20
110.7598450291519
 30
0.0
 10
76.4535774149206
 20
117.3760002724686
 30
0.0
 10
78.26994149770528
 20
123.8777497812489
 30
0.0
 10
80.74959498885423
 20
125.4032177457783
 30
0.0
 10
83.38609061942326
 20
125.1049947220789
 30
0.0
 10
86.49912682561835
 20
124.8346063855555
 30
0.0
 10
84.60110929144724
 20
117.0725392797511
 30
0.0
 10
82.79132718166505
 20
109.6713138019015
 30
0.0
 10
80.95330796491017
 20
102.1546172840317
 30
0.0
  0
SPLINE
  5
5F
330
1F
100
AcDbEntity
  8
Calque 1
370
     0
100
AcDbSpline
210
0.0
220
0.0
230
1.0
 70
    11
 71
     3
 72
    17
 73
    13
 74
     0
 42
0.0000000001
 43
0.0000000001
 12
1.0
 22
0.0
 32
0.0
 13
1.0
 23
0.0
 33
0.0
 40
0.0
 40
0.0
 40
0.0
 40
0.0
 40
1.0
 40
1.0
 40
1.0
 40
2.0
 40
2.0
 40
2.0
 40
3.0
 40
3.0
 40
3.0
 40
4.0
 40
4.0
 40
4.0
 40
4.0
 10
79.51598686636761
 20
104.3678011479488
 30
0.0
 10
80.93650270578402
 20
110.4003161492758
 30
0.0
 10
82.3466467935204
 20
116.3887863688572
 30
0.0
 10
83.78367096094993
 20
122.4914044617455
 30
0.0
 10
82.20285139045527
 20
122.9389851375578
 30
0.0
 10
81.14799840258874
 20
123.1442700252514
 30
0.0
 10
79.90845947182108
 20
121.9583180440547
 30
0.0
 10
78.69258386702363
 20
116.0182449912162
 30
0.0
 10
76.19857349610064
 20
110.0557640579892
 30
0.0
 10
75.57046781995548
 20
103.4770755304034
 30
0.0
 10
77.05548543200038
 20
103.4072941142156
 30
0.0
 10
78.1086115310261
 20
103.7274092958432
 30
0.0
 10
79.51598686636761
 20
104.3678011479488
 30
0.0
  0
SPLINE
  5
60
330
1F
100
AcDbEntity
  8
Calque 1
370
     0
100
AcDbSpline
210
0.0
220
0.0
230
1.0
 70
    11
 71
     3
 72
    23
 73
    19
 74
     0
 42
0.0000000001
 43
0.0000000001
 12
1.0
 22
0.0
 32
0.0
 13
1.0
 23
0.0
 33
0.0
 40
0.0
 40
0.0
 40
0.0
 40
0.0
 40
1.0
 40
1.0
 40
1.0
 40
2.0
 40
2.0
 40
2.0
 40
3.0
 40
3.0
 40
3.0
 40
4.0
 40
4.0
 40
4.0
 40
5.0
 40
5.0
 40
5.0
 40
6.0
 40
6.0
 40
6.0
 40
6.0
 10
108.2013113537533
 20
107.5532781270544
 30
0.0
 10
112.1714157753807
 20
106.7065295701234
 30
0.0
 10
115.7121682264027
 20
108.0090465480728
 30
0.0
 10
119.2934491696755
 20
107.9967838140418
 30
0.0
 10
121.6284060457846
 20
107.9887901159237
 30
0.0
 10
122.8129684414662
 20
109.3002072132818
 30
0.0
 10
123.3460379288744
 20
111.3738412681163
 30
0.0
 10
124.1643019362382
 20
114.5569271703658
 30
0.0
 10
124.929889322311
 20
117.7535325545572
 30
0.0
 10
125.7239768859043
 20
120.9428683358004
 30
0.0
 10
126.2138663383159
 20
122.91041072726
 30
0.0
 10
126.6035128888788
 20
124.8872751928689
 30
0.0
 10
126.4896736676506
 20
127.3780935543288
 30
0.0
 10
121.7076137224786
 20
127.1173776185737
 30
0.0
 10
117.0464985079731
 20
127.2320568422928
 30
0.0
 10
112.4372420518684
 20
125.7847052023838
 30
0.0
 10
110.4366817020531
 20
119.8805269536398
 30
0.0
 10
108.624459026895
 20
114.0796833368405
 30
0.0
 10
108.2013113537533
 20
107.5532781270544
 30
0.0
  0
SPLINE
  5
61
330
1F
100
AcDbEntity
  8
Calque 1
370
     0
100
AcDbSpline
210
0.0
220
0.0
230
1.0
 70
    11
 71
     3
 72
    17
 73
    13
 74
     0
 42
0.0000000001
 43
0.0000000001
 12
1.0
 22
0.0
 32
0.0
 13
1.0
 23
0.0
 33
0.0
 40
0.0
 40
0.0
 40
0.0
 40
0.0
 40
1.0
 40
1.0
 40
1.0
 40
2.0
 40
2.0
 40
2.0
 40
3.0
 40
3.0
 40
3.0
 40
4.0
 40
4.0
 40
4.0
 40
4.0
 10
121.7372547405897
 20
122.4944558196288
 30
0.0
 10
121.3719200760591
 20
118.7379764034436
 30
0.0
 10
120.3926568936948
 20
115.5475570841044
 30
0.0
 10
119.1685453575036
 20
112.467253626117
 30
0.0
 10
117.135786214551
 20
111.6897603442802
 30
0.0
 10
115.2314992664439
 20
111.9711807135121
 30
0.0
 10
112.8563420851031
 20
111.4553202073576
 30
0.0
 10
113.3093964515629
 20
115.4107760274166
 30
0.0
 10
114.3295527784219
 20
118.6810776301012
 30
0.0
 10
115.0341598906795
 20
121.894901111852
 30
0.0
 10
117.2122433714622
 20
123.2401175652318
 30
0.0
 10
119.2613233069873
 20
123.1320854309869
 30
0.0
 10
121.7372547405897
 20
122.4944558196288
 30
0.0
  0
SPLINE
  5
62
330
1F
100
AcDbEntity
  8
Calque 1
370
     0
100
AcDbSpline
210
0.0
220
0.0
230
1.0
 70
    11
 71
     3
 72
    14
 73
    10
 74
     0
 42
0.0000000001
 43
0.0000000001
 12
1.0
 22
0.0
 32
0.0
 13
1.0
 23
0.0
 33
0.0
 40
0.0
 40
0.0
 40
0.0
 40
0.0
 40
1.0
 40
1.0
 40
1.0
 40
2.0
 40
2.0
 40
2.0
 40
3.0
 40
3.0
 40
3.0
 40
3.0
 10
117.5467545027475
 20
114.0722965242427
 30
0.0
 10
119.6411711308252
 20
119.1389206619207
 30
0.0
 10
119.6157913346494
 20
119.6172337079182
 30
0.0
 10
117.1161418772407
 20
120.4039930637384
 30
0.0
 10
116.0521699786176
 20
118.5333960759796
 30
0.0
 10
115.7939440967568
 20
116.507402534481
 30
0.0
 10
115.7902871556822
 20
114.5171410058965
 30
0.0
 10
116.4573194588641
 20
114.0606745362979
 30
0.0
 10
116.9609406729177
 20
113.8637857665201
 30
0.0
 10
117.5467545027475
 20
114.0722965242427
 30
0.0
  0
INSERT
  5
64
330
1F
100
AcDbEntity
  8
Calque 1
100
AcDbBlockReference
  2
block 2
 10
0.0
 20
0.0
 30
0.0
  0
SPLINE
  5
6D
330
1F
100
AcDbEntity
  8
Calque 1
370
     0
100
AcDbSpline
210
0.0
220
0.0
230
1.0
 70
    11
 71
     3
 72
    74
 73
    70
 74
     0
 42
0.0000000001
 43
0.0000000001
 12
1.0
 22
0.0
 32
0.0
 13
1.0
 23
0.0
 33
0.0
 40
0.0
 40
0.0
 40
0.0
 40
0.0
 40
1.0
 40
1.0
 40
1.0
 40
2.0
 40
2.0
 40
2.0
 40
3.0
 40
3.0
 40
3.0
 40
4.0
 40
4.0
 40
4.0
 40
5.0
 40
5.0
 40
5.0
 40
6.0
 40
6.0
 40
6.0
 40
7.0
 40
7.0
 40
7.0
 40
8.0
 40
8.0
 40
8.0
 40
9.0
 40
9.0
 40
9.0
 40
10.0
 40
10.0
 40
10.0
 40
11.0
 40
11.0
 40
11.0
 40
12.0
 40
12.0
 40
12.0
 40
13.0
 40
13.0
 40
13.0
 40
14.0
 40
14.0
 40
14.0
 40
15.0
 40
15.0
 40
15.0
 40
16.0
 40
16.0
 40
16.0
 40
17.0
 40
17.0
 40
17.0
 40
18.0
 40
18.0
 40
18.0
 40
19.0
 40
19.0
 40
19.0
 40
20.0
 40
20.0
 40
20.0
 40
21.0
 40
21.0
 40
21.0
 40
22.0
 40
22.0
 40
22.0
 40
23.0
 40
23.0
 40
23.0
 40
23.0
 10
157.5726924078453
 20
241.5141341559301
 30
0.0
 10
155.8842511105244
 20
235.3253215625337
 30
0.0
 10
156.1727132618737
 20
229.0950601640804
 30
0.0
 10
150.7501437340138
 20
225.0495491312919
 30
0.0
 10
151.184408785853
 20
218.2165682776941
 30
0.0
 10
154.1782828899222
 20
212.0221574041342
 30
0.0
 10
154.8302133808888
 20
204.8911327273688
 30
0.0
 10
136.5890895078178
 20
202.3354532371766
 30
0.0
 10
118.408071785041
 20
200.9528072278651
 30
0.0
 10
100.3081214654015
 20
198.9101670509669
 30
0.0
 10
82.17003286214792
 20
196.8631989728654
 30
0.0
 10
63.9944357817987
 20
195.1484457587758
 30
0.0
 10
45.36576558144556
 20
193.2399920510281
 30
0.0
 10
46.46995636520001
 20
201.9860128957383
 30
0.0
 10
49.585646892443
 20
209.8517472484268
 30
0.0
 10
50.89162876128426
 20
217.7587366195512
 30
0.0
 10
50.44752365546538
 20
218.4499950286666
 30
0.0
 10
49.94824319226554
 20
218.5742553164502
 30
0.0
 10
49.44973787554989
 20
218.5742553164502
 30
0.0
 10
49.16953857040347
 20
218.5742553164502
 30
0.0
 10
48.88959226445675
 20
218.5349596960716
 30
0.0
 10
48.62001354273595
 20
218.5349596960716
 30
0.0
 10
48.32330469406881
 20
218.5349596960716
 30
0.0
 10
48.03894435953161
 20
218.5826096730019
 30
0.0
 10
47.78057296406126
 20
218.7826835933078
 30
0.0
 10
48.48176293750521
 20
221.6077695504466
 30
0.0
 10
49.11656484435606
 20
224.4700625388261
 30
0.0
 10
49.9123442207169
 20
227.2868802668002
 30
0.0
 10
50.72485384202799
 20
230.1627598504997
 30
0.0
 10
51.81568949781539
 20
230.9140275165988
 30
0.0
 10
54.74475812603007
 20
231.1826803689079
 30
0.0
 10
60.04187234860987
 20
231.6685249597153
 30
0.0
 10
65.34529001933534
 20
232.1193587676538
 30
0.0
 10
70.62196513635655
 20
232.7778241741189
 30
0.0
 10
70.7870282737936
 20
232.7984086196433
 30
0.0
 10
70.94829642323515
 20
232.8079041640745
 30
0.0
 10
71.10664700743764
 20
232.8078826322277
 30
0.0
 10
72.84201696482172
 20
232.8078395685341
 30
0.0
 10
74.21171156829332
 20
231.669149383272
 30
0.0
 10
76.03961463722653
 20
231.5552028500973
 30
0.0
 10
77.53464073785918
 20
233.639830128222
 30
0.0
 10
79.81394282570895
 20
233.8243795869975
 30
0.0
 10
82.2681481049755
 20
234.0077232623531
 30
0.0
 10
87.92114607414331
 20
234.4300489051512
 30
0.0
 10
93.55260143060491
 20
235.1415041865488
 30
0.0
 10
99.1922227399589
 20
235.7411445876033
 30
0.0
 10
100.6150794731373
 20
235.8924273430994
 30
0.0
 10
102.0400463273003
 20
236.0746298305755
 30
0.0
 10
103.4580583949525
 20
236.0746082987287
 30
0.0
 10
105.303983619643
 20
236.074586766882
 30
0.0
 10
107.1379479034455
 20
235.7657770203229
 30
0.0
 10
108.9384086336541
 20
234.6780311845488
 30
0.0
 10
114.0692108716834
 20
238.7812906304088
 30
0.0
 10
120.40389096111
 20
237.4708839670537
 30
0.0
 10
126.2281801543967
 20
238.5268918606699
 30
0.0
 10
126.4133217389587
 20
238.5604600098043
 30
0.0
 10
126.5947813777209
 20
238.5767811496657
 30
0.0
 10
126.7721822633645
 20
238.5767811496657
 30
0.0
 10
128.0561262870235
 20
238.5767165541254
 30
0.0
 10
129.1211883222119
 20
237.7207610489683
 30
0.0
 10
129.7274712979989
 20
236.3481919439512
 30
0.0
 10
130.3124054477008
 20
235.024004898655
 30
0.0
 10
131.0460277653613
 20
233.7661144096032
 30
0.0
 10
131.4475105804736
 20
232.0280852691414
 30
0.0
 10
134.248104061897
 20
233.8831399968678
 30
0.0
 10
132.9784571845017
 20
237.2462637414154
 30
0.0
 10
135.1321909248758
 20
239.1858309677643
 30
0.0
 10
142.2222512631369
 20
240.6137799827068
 30
0.0
 10
149.6634529587321
 20
240.5946812346104
 30
0.0
 10
157.5726924078453
 20
241.5141341559301
 30
0.0
  0
SPLINE
  5
6E
330
1F
100
AcDbEntity
  8
Calque 1
370
     0
100
AcDbSpline
210
0.0
220
0.0
230
1.0
 70
    11
 71
     3
 72
   134
 73
   130
 74
     0
 42
0.0000000001
 43
0.0000000001
 12
1.0
 22
0.0
 32
0.0
 13
1.0
 23
0.0
 33
0.0
 40
0.0
 40
0.0
 40
0.0
 40
0.0
 40
1.0
 40
1.0
 40
1.0
 40
2.0
 40
2.0
 40
2.0
 40
3.0
 40
3.0
 40
3.0
 40
4.0
 40
4.0
 40
4.0
 40
5.0
 40
5.0
 40
5.0
 40
6.0
 40
6.0
 40
6.0
 40
7.0
 40
7.0
 40
7.0
 40
8.0
 40
8.0
 40
8.0
 40
9.0
 40
9.0
 40
9.0
 40
10.0
 40
10.0
 40
10.0
 40
11.0
 40
11.0
 40
11.0
 40
12.0
 40
12.0
 40
12.0
 40
13.0
 40
13.0
 40
13.0
 40
14.0
 40
14.0
 40
14.0
 40
15.0
 40
15.0
 40
15.0
 40
16.0
 40
16.0
 40
16.0
 40
17.0
 40
17.0
 40
17.0
 40
18.0
 40
18.0
 40
18.0
 40
19.0
 40
19.0
 40
19.0
 40
20.0
 40
20.0
 40
20.0
 40
21.0
 40
21.0
 40
21.0
 40
22.0
 40
22.0
 40
22.0
 40
23.0
 40
23.0
 40
23.0
 40
24.0
 40
24.0
 40
24.0
 40
25.0
 40
25.0
 40
25.0
 40
26.0
 40
26.0
 40
26.0
 40
27.0
 40
27.0
 40
27.0
 40
28.0
 40
28.0
 40
28.0
 40
29.0
 40
29.0
 40
29.0
 40
30.0
 40
30.0
 40
30.0
 40
31.0
 40
31.0
 40
31.0
 40
32.0
 40
32.0
 40
32.0
 40
33.0
 40
33.0
 40
33.0
 40
34.0
 40
34.0
 40
34.0
 40
35.0
 40
35.0
 40
35.0
 40
36.0
 40
36.0
 40
36.0
 40
37.0
 40
37.0
 40
37.0
 40
38.0
 40
38.0
 40
38.0
 40
39.0
 40
39.0
 40
39.0
 40
40.0
 40
40.0
 40
40.0
 40
41.0
 40
41.0
 40
41.0
 40
42.0
 40
42.0
 40
42.0
 40
43.0
 40
43.0
 40
43.0
 40
43.0
 10
162.349834062467
 20
245.6210324838964
 30
0.0
 10
162.349834062467
 20
245.6210324838964
 30
0.0
 10
157.1653206326379
 20
245.0183345605987
 30
0.0
 10
157.1653206326379
 20
245.0183345605987
 30
0.0
 10
154.2313804240887
 20
244.6772485757122
 30
0.0
 10
151.3101332392178
 20
244.4647723116594
 30
0.0
 10
148.4850688139258
 20
244.2592723659643
 30
0.0
 10
143.6310907640597
 20
243.9062362061133
 30
0.0
 10
139.0463038626722
 20
243.5727509631411
 30
0.0
 10
134.435667979222
 20
242.6441470069388
 30
0.0
 10
134.435667979222
 20
242.6441470069388
 30
0.0
 10
133.4889880376456
 20
242.4535040355238
 30
0.0
 10
133.4889880376456
 20
242.4535040355238
 30
0.0
 10
133.4889880376456
 20
242.4535040355238
 30
0.0
 10
132.7714177117616
 20
241.8072687180313
 30
0.0
 10
132.7714177117616
 20
241.8072687180313
 30
0.0
 10
132.1814235780658
 20
241.2759488668186
 30
0.0
 10
131.7348961394838
 20
240.7052903315337
 30
0.0
 10
131.389482253394
 20
240.1262774396972
 30
0.0
 10
130.1548353929442
 20
241.3941587056563
 30
0.0
 10
128.5431335975572
 20
242.1044727991744
 30
0.0
 10
126.7723652840621
 20
242.1045589265615
 30
0.0
 10
126.3834463015476
 20
242.1045589265615
 30
0.0
 10
125.9887352522485
 20
242.0687514653617
 30
0.0
 10
125.5990088254796
 20
241.9981054760673
 30
0.0
 10
124.0417826024531
 20
241.7157583692043
 30
0.0
 10
122.3813434718732
 20
241.6223532178605
 30
0.0
 10
120.6234296709075
 20
241.5234359137403
 30
0.0
 10
116.8136923603908
 20
241.3091079108641
 30
0.0
 10
112.5666001780215
 20
241.0703627937363
 30
0.0
 10
108.6181331786832
 20
238.7346957139709
 30
0.0
 10
107.0552117821826
 20
239.3167661280506
 30
0.0
 10
105.3492973911974
 20
239.602343011931
 30
0.0
 10
103.4581445223397
 20
239.6023860756246
 30
0.0
 10
102.0526962872852
 20
239.6023860756246
 30
0.0
 10
100.7173880431258
 20
239.4562494315096
 30
0.0
 10
99.42602629825005
 20
239.3149359210741
 30
0.0
 10
99.22375612957232
 20
239.2928011825813
 30
0.0
 10
99.0214751949712
 20
239.2706449122418
 30
0.0
 10
98.81926962183381
 20
239.2491561291526
 30
0.0
 10
97.23717411577317
 20
239.0809493420852
 30
0.0
 10
95.63417118648643
 20
238.9015459946908
 30
0.0
 10
94.08397511143453
 20
238.7281069688553
 30
0.0
 10
90.11815882655087
 20
238.2843140748148
 30
0.0
 10
86.01733786233899
 20
237.8254273561795
 30
0.0
 10
82.00530885129773
 20
237.525682517116
 30
0.0
 10
79.91146594275
 20
237.3692751820856
 30
0.0
 10
77.214440644352
 20
237.1677155643517
 30
0.0
 10
74.95875899242297
 20
235.4584960348854
 30
0.0
 10
74.92816762110628
 20
235.4700801684545
 30
0.0
 10
74.89730171874312
 20
235.4818150249512
 30
0.0
 10
74.86623126383553
 20
235.4936144769881
 30
0.0
 10
73.87856545190796
 20
235.8687423116383
 30
0.0
 10
72.6493769146176
 20
236.3355958135832
 30
0.0
 10
71.10676543259495
 20
236.3356819409703
 30
0.0
 10
70.7995436597361
 20
236.3356819409703
 30
0.0
 10
70.48956042752735
 20
236.3164324699465
 30
0.0
 10
70.18526698583096
 20
236.2784502922216
 30
0.0
 10
65.73175437131663
 20
235.7227133267573
 30
0.0
 10
61.15470816884761
 20
235.3073855341636
 30
0.0
 10
56.72833644720301
 20
234.9057089324303
 30
0.0
 10
55.95968181482682
 20
234.8359672807007
 30
0.0
 10
55.19104333133571
 20
234.7662040971244
 30
0.0
 10
54.42253942188699
 20
234.6957088307575
 30
0.0
 10
49.92868150946336
 20
234.2835462196409
 30
0.0
 10
47.71231162679805
 20
232.4751940675865
 30
0.0
 10
46.51745023624119
 20
228.2460163817406
 30
0.0
 10
45.94506915321372
 20
226.2199557268652
 30
0.0
 10
45.45400308956152
 20
224.1745164098852
 30
0.0
 10
44.97911820876661
 20
222.1964287096419
 30
0.0
 10
44.77347292310568
 20
221.3399349083152
 30
0.0
 10
44.56815599810818
 20
220.4844746356341
 30
0.0
 10
44.35668634789249
 20
219.6325025221318
 30
0.0
 10
44.35668634789249
 20
219.6325025221318
 30
0.0
 10
43.80284687642586
 20
217.4010711126419
 30
0.0
 10
43.80284687642586
 20
217.4010711126419
 30
0.0
 10
43.80284687642586
 20
217.4010711126419
 30
0.0
 10
45.62066496662218
 20
215.9934266292156
 30
0.0
 10
45.62066496662218
 20
215.9934266292156
 30
0.0
 10
45.99246074798268
 20
215.7055243058826
 30
0.0
 10
46.39596217373087
 20
215.4800643382198
 30
0.0
 10
46.828865336261
 20
215.3178218727114
 30
0.0
 10
46.30976480809758
 20
212.934160306467
 30
0.0
 10
45.66100488156977
 20
210.515466425507
 30
0.0
 10
44.98595457012016
 20
207.9987165142981
 30
0.0
 10
43.76673258640939
 20
203.4531714036723
 30
0.0
 10
42.50599181913967
 20
198.7528553783717
 30
0.0
 10
41.8657665783804
 20
193.681868610705
 30
0.0
 10
41.8657665783804
 20
193.681868610705
 30
0.0
 10
41.30981160296736
 20
189.2782183703779
 30
0.0
 10
41.30981160296736
 20
189.2782183703779
 30
0.0
 10
41.30981160296736
 20
189.2782183703779
 30
0.0
 10
45.72528821013986
 20
189.730580939438
 30
0.0
 10
45.72528821013986
 20
189.730580939438
 30
0.0
 10
51.42857919043062
 20
190.3148691337364
 30
0.0
 10
57.1706759415857
 20
190.889123487434
 30
0.0
 10
62.72373384391108
 20
191.4444513478095
 30
0.0
 10
75.19978110234806
 20
192.6921357414863
 30
0.0
 10
88.10060325115465
 20
193.9823240007123
 30
0.0
 10
100.7037476181889
 20
195.4046316717977
 30
0.0
 10
107.2696259124458
 20
196.1456071151346
 30
0.0
 10
113.9731034735684
 20
196.8120608367562
 30
0.0
 10
120.4558580733203
 20
197.4565520746593
 30
0.0
 10
131.8583597489365
 20
198.5901607440808
 30
0.0
 10
143.6490590901999
 20
199.762354482937
 30
0.0
 10
155.3196968538025
 20
201.3974829276237
 30
0.0
 10
155.3196968538025
 20
201.3974829276237
 30
0.0
 10
158.6494570017602
 20
201.8639919200201
 30
0.0
 10
158.6494570017602
 20
201.8639919200201
 30
0.0
 10
158.6494570017602
 20
201.8639919200201
 30
0.0
 10
158.3433495019723
 20
205.212323285828
 30
0.0
 10
158.3433495019723
 20
205.212323285828
 30
0.0
 10
157.9982478276608
 20
208.9871574727098
 30
0.0
 10
157.076038829953
 20
212.4209056747051
 30
0.0
 10
156.1842005021323
 20
215.7416332129374
 30
0.0
 10
155.4628190393678
 20
218.4276880353996
 30
0.0
 10
154.7742198133301
 20
220.9915926910629
 30
0.0
 10
154.4384091309054
 20
223.5639808943586
 30
0.0
 10
158.2824789711173
 20
227.2912942953907
 30
0.0
 10
159.2103293126822
 20
232.0626438832278
 30
0.0
 10
160.0395745619053
 20
236.3277366895075
 30
0.0
 10
160.3140625446925
 20
237.7395583512097
 30
0.0
 10
160.5978953489836
 20
239.1994175630843
 30
0.0
 10
160.9760914718003
 20
240.5856378589617
 30
0.0
 10
160.9760914718003
 20
240.5856378589617
 30
0.0
 10
162.349834062467
 20
245.6210324838964
 30
0.0
 10
162.349834062467
 20
245.6210324838964
 30
0.0
 10
162.349834062467
 20
245.6210324838964
 30
0.0
 10
162.349834062467
 20
245.6210324838964
 30
0.0
 10
162.349834062467
 20
245.6210324838964
 30
0.0
  0
SPLINE
  5
6F
330
1F
100
AcDbEntity
  8
Calque 1
370
     0
100
AcDbSpline
210
0.0
220
0.0
230
1.0
 70
    11
 71
     3
 72
    89
 73
    85
 74
     0
 42
0.0000000001
 43
0.0000000001
 12
1.0
 22
0.0
 32
0.0
 13
1.0
 23
0.0
 33
0.0
 40
0.0
 40
0.0
 40
0.0
 40
0.0
 40
1.0
 40
1.0
 40
1.0
 40
2.0
 40
2.0
 40
2.0
 40
3.0
 40
3.0
 40
3.0
 40
4.0
 40
4.0
 40
4.0
 40
5.0
 40
5.0
 40
5.0
 40
6.0
 40
6.0
 40
6.0
 40
7.0
 40
7.0
 40
7.0
 40
8.0
 40
8.0
 40
8.0
 40
9.0
 40
9.0
 40
9.0
 40
10.0
 40
10.0
 40
10.0
 40
11.0
 40
11.0
 40
11.0
 40
12.0
 40
12.0
 40
12.0
 40
13.0
 40
13.0
 40
13.0
 40
14.0
 40
14.0
 40
14.0
 40
15.0
 40
15.0
 40
15.0
 40
16.0
 40
16.0
 40
16.0
 40
17.0
 40
17.0
 40
17.0
 40
18.0
 40
18.0
 40
18.0
 40
19.0
 40
19.0
 40
19.0
 40
20.0
 40
20.0
 40
20.0
 40
21.0
 40
21.0
 40
21.0
 40
22.0
 40
22.0
 40
22.0
 40
23.0
 40
23.0
 40
23.0
 40
24.0
 40
24.0
 40
24.0
 40
25.0
 40
25.0
 40
25.0
 40
26.0
 40
26.0
 40
26.0
 40
27.0
 40
27.0
 40
27.0
 40
28.0
 40
28.0
 40
28.0
 40
28.0
 10
51.0392618687506
 20
201.78301064427
 30
0.0
 10
52.62443642890118
 20
207.9489133526894
 30
0.0
 10
54.2269871894055
 20
214.1103589688248
 30
0.0
 10
55.81924572714762
 20
220.2744530021146
 30
0.0
 10
55.98764630083599
 20
220.926351195311
 30
0.0
 10
56.29609000599977
 20
221.56886150331
 30
0.0
 10
56.09364758254777
 20
222.0868316095174
 30
0.0
 10
55.33441313313906
 20
223.614796052766
 30
0.0
 10
53.89100425220651
 20
222.582666977232
 30
0.0
 10
52.89653437669558
 20
223.2500896319588
 30
0.0
 10
53.37871855354985
 20
224.4038736418157
 30
0.0
 10
53.85272062862666
 20
225.5380636711003
 30
0.0
 10
54.42770706511487
 20
226.9138840849816
 30
0.0
 10
60.20534751234667
 20
227.2213157933466
 30
0.0
 10
65.88971199931534
 20
229.1763213538387
 30
0.0
 10
72.39278189650685
 20
228.150608768646
 30
0.0
 10
71.4272723549188
 20
221.7582771594584
 30
0.0
 10
69.40375245796373
 20
215.9144693470631
 30
0.0
 10
68.35784300048867
 20
210.2641251780112
 30
0.0
 10
66.67422483684707
 20
209.2638417038689
 30
0.0
 10
65.48220026710385
 20
209.4080189499267
 30
0.0
 10
64.27008648431226
 20
209.625792048288
 30
0.0
 10
64.47242124853034
 20
214.5685997320566
 30
0.0
 10
67.10520628205182
 20
218.8553966398934
 30
0.0
 10
67.07820534618618
 20
223.8667401919717
 30
0.0
 10
64.9122738146096
 20
224.1797486486534
 30
0.0
 10
62.96812030489599
 20
223.9259097069309
 30
0.0
 10
60.57920496803663
 20
223.1932455564521
 30
0.0
 10
58.98052993995322
 20
216.6911445923658
 30
0.0
 10
57.34430337108059
 20
210.0362751753555
 30
0.0
 10
55.78305069270571
 20
203.6863828361769
 30
0.0
 10
57.30022768071618
 20
202.2277294077222
 30
0.0
 10
58.62394102538308
 20
202.5144690113289
 30
0.0
 10
59.81611631805379
 20
202.6395044455967
 30
0.0
 10
66.3660395138447
 20
203.3264564853555
 30
0.0
 10
72.90452929899392
 20
204.1212830774962
 30
0.0
 10
79.45113659038027
 20
204.8410281199052
 30
0.0
 10
85.09327712580784
 20
205.4613175620244
 30
0.0
 10
90.74036998599547
 20
206.0367776991419
 30
0.0
 10
96.3864293175375
 20
206.6207429157385
 30
0.0
 10
101.5822792646977
 20
207.1581562795907
 30
0.0
 10
106.7797225685199
 20
207.6800667137593
 30
0.0
 10
111.9763907258579
 20
208.2095348261486
 30
0.0
 10
120.3350321150985
 20
209.0611839619491
 30
0.0
 10
128.6940826094281
 20
209.9088066424013
 30
0.0
 10
137.0519057884909
 20
210.7683149022776
 30
0.0
 10
139.508861761184
 20
211.0209695924271
 30
0.0
 10
141.9862299246271
 20
211.1827168254596
 30
0.0
 10
144.5175784279548
 20
212.0524742444044
 30
0.0
 10
144.2675936868064
 20
216.1224023914447
 30
0.0
 10
143.4772026551029
 20
219.9087345845085
 30
0.0
 10
141.8343442774212
 20
223.519431503365
 30
0.0
 10
138.9198150287466
 20
223.5146729652259
 30
0.0
 10
138.227286240671
 20
221.7064500042522
 30
0.0
 10
137.6568645557008
 20
219.6156215542541
 30
0.0
 10
136.8655045908921
 20
216.7148511556737
 30
0.0
 10
136.6760028073566
 20
216.6454324816459
 30
0.0
 10
133.5413319571746
 20
216.7534577569553
 30
0.0
 10
133.6417995542632
 20
223.3172043983808
 30
0.0
 10
136.7874301144577
 20
229.1563398000243
 30
0.0
 10
137.6012908591544
 20
235.335010893586
 30
0.0
 10
139.1561916427283
 20
235.9371489888673
 30
0.0
 10
140.1430392444781
 20
235.6135253317216
 30
0.0
 10
140.9745776353835
 20
234.6885602576256
 30
0.0
 10
141.328561196493
 20
232.7367198786105
 30
0.0
 10
139.7698277441917
 20
230.9880324739913
 30
0.0
 10
140.3650110529621
 20
229.0485729068763
 30
0.0
 10
144.1368953768347
 20
228.7809535832127
 30
0.0
 10
147.0753680391318
 20
231.3488631623776
 30
0.0
 10
148.5406748082424
 20
236.1289331481618
 30
0.0
 10
149.4632498473456
 20
236.9099147628211
 30
0.0
 10
150.5606204186315
 20
236.9187212881553
 30
0.0
 10
151.8601104356678
 20
236.7067402565785
 30
0.0
 10
152.7427654308356
 20
231.6826713830516
 30
0.0
 10
149.5015334709254
 20
228.9077976926103
 30
0.0
 10
146.0266163778814
 20
226.4666245636091
 30
0.0
 10
146.7420981146274
 20
220.1956249110427
 30
0.0
 10
149.1370639004328
 20
214.5753392000997
 30
0.0
 10
149.8910661110733
 20
208.1246778179775
 30
0.0
 10
116.8055963860004
 20
204.6693116418123
 30
0.0
 10
84.00779213394597
 20
201.2439823919091
 30
0.0
 10
51.48576777548576
 20
197.8474627530013
 30
0.0
 10
50.12812024028915
 20
199.3970021067263
 30
0.0
 10
50.73639491190357
 20
200.6048956475484
 30
0.0
 10
51.0392618687506
 20
201.78301064427
 30
0.0
  0
SPLINE
  5
70
330
1F
100
AcDbEntity
  8
Calque 1
370
     0
100
AcDbSpline
210
0.0
220
0.0
230
1.0
 70
    11
 71
     3
 72
    17
 73
    13
 74
     0
 42
0.0000000001
 43
0.0000000001
 12
1.0
 22
0.0
 32
0.0
 13
1.0
 23
0.0
 33
0.0
 40
0.0
 40
0.0
 40
0.0
 40
0.0
 40
1.0
 40
1.0
 40
1.0
 40
2.0
 40
2.0
 40
2.0
 40
3.0
 40
3.0
 40
3.0
 40
4.0
 40
4.0
 40
4.0
 40
4.0
 10
83.78366714078369
 20
229.439505117065
 30
0.0
 10
82.34665321834564
 20
223.3368845063403
 30
0.0
 10
80.93651104069252
 20
217.3484042154112
 30
0.0
 10
79.5159905128901
 20
211.3158912978112
 30
0.0
 10
78.1086044116252
 20
210.6755126426436
 30
0.0
 10
77.05548178547788
 20
210.3553986765236
 30
0.0
 10
75.57047337656094
 20
210.4251618600999
 30
0.0
 10
76.19857887906234
 20
217.0038516031926
 30
0.0
 10
78.69259116006862
 20
222.9663429550549
 30
0.0
 10
79.90845148420041
 20
228.9064196544162
 30
0.0
 10
81.1479968397933
 20
230.0923722433667
 30
0.0
 10
82.20284201368324
 20
229.8870876161394
 30
0.0
 10
83.78366714078369
 20
229.439505117065
 30
0.0
  0
SPLINE
  5
71
330
1F
100
AcDbEntity
  8
Calque 1
370
     0
100
AcDbSpline
210
0.0
220
0.0
230
1.0
 70
    11
 71
     3
 72
    17
 73
    13
 74
     0
 42
0.0000000001
 43
0.0000000001
 12
1.0
 22
0.0
 32
0.0
 13
1.0
 23
0.0
 33
0.0
 40
0.0
 40
0.0
 40
0.0
 40
0.0
 40
1.0
 40
1.0
 40
1.0
 40
2.0
 40
2.0
 40
2.0
 40
3.0
 40
3.0
 40
3.0
 40
4.0
 40
4.0
 40
4.0
 40
4.0
 10
119.1685443156397
 20
219.4153538473272
 30
0.0
 10
117.1357872564148
 20
218.6378603918466
 30
0.0
 10
115.2314891950962
 20
218.919281629298
 30
0.0
 10
112.8563327083311
 20
218.4034216440754
 30
0.0
 10
113.309405828335
 20
222.3588649617714
 30
0.0
 10
114.3295631970578
 20
225.6291649148384
 30
0.0
 10
115.0341498193317
 20
228.842986833794
 30
0.0
 10
117.2122468443406
 20
230.188210493397
 30
0.0
 10
119.2613250434269
 20
230.0801852180876
 30
0.0
 10
121.7372505731356
 20
229.4425626393082
 30
0.0
 10
121.3719197287716
 20
225.6860735858853
 30
0.0
 10
120.3926513370893
 20
222.4956567843826
 30
0.0
 10
119.1685443156397
 20
219.4153538473272
 30
0.0
  0
SPLINE
  5
72
330
1F
100
AcDbEntity
  8
Calque 1
370
     0
100
AcDbSpline
210
0.0
220
0.0
230
1.0
 70
    11
 71
     3
 72
    23
 73
    19
 74
     0
 42
0.0000000001
 43
0.0000000001
 12
1.0
 22
0.0
 32
0.0
 13
1.0
 23
0.0
 33
0.0
 40
0.0
 40
0.0
 40
0.0
 40
0.0
 40
1.0
 40
1.0
 40
1.0
 40
2.0
 40
2.0
 40
2.0
 40
3.0
 40
3.0
 40
3.0
 40
4.0
 40
4.0
 40
4.0
 40
5.0
 40
5.0
 40
5.0
 40
6.0
 40
6.0
 40
6.0
 40
6.0
 10
126.4896736676506
 20
234.3261792762709
 30
0.0
 10
121.7076227519624
 20
234.0654716754246
 30
0.0
 10
117.0464946878065
 20
234.1801502913899
 30
0.0
 10
112.4372368425504
 20
232.7328010824961
 30
0.0
 10
110.4366914261126
 20
226.8286179717217
 30
0.0
 10
108.6244635416373
 20
221.0277877255048
 30
0.0
 10
108.2013196886615
 20
214.5013773064007
 30
0.0
 10
112.1714261940166
 20
213.6546158998199
 30
0.0
 10
115.7121661426757
 20
214.9571419072525
 30
0.0
 10
119.2934505588268
 20
214.9448902864331
 30
0.0
 10
121.6284070876485
 20
214.9368804394298
 30
0.0
 10
122.8129601065581
 20
216.2482990995838
 30
0.0
 10
123.3460455692069
 20
218.3219451358492
 30
0.0
 10
124.1642988106473
 20
221.505019577599
 30
0.0
 10
124.9298851548569
 20
224.7016375509752
 30
0.0
 10
125.723979664207
 20
227.890956228292
 30
0.0
 10
126.2138722422096
 20
229.8585148554586
 30
0.0
 10
126.6035125415913
 20
231.8353752404353
 30
0.0
 10
126.4896736676506
 20
234.3261792762709
 30
0.0
  0
SPLINE
  5
73
330
1F
100
AcDbEntity
  8
Calque 1
370
     0
100
AcDbSpline
210
0.0
220
0.0
230
1.0
 70
    11
 71
     3
 72
    44
 73
    40
 74
     0
 42
0.0000000001
 43
0.0000000001
 12
1.0
 22
0.0
 32
0.0
 13
1.0
 23
0.0
 33
0.0
 40
0.0
 40
0.0
 40
0.0
 40
0.0
 40
1.0
 40
1.0
 40
1.0
 40
2.0
 40
2.0
 40
2.0
 40
3.0
 40
3.0
 40
3.0
 40
4.0
 40
4.0
 40
4.0
 40
5.0
 40
5.0
 40
5.0
 40
6.0
 40
6.0
 40
6.0
 40
7.0
 40
7.0
 40
7.0
 40
8.0
 40
8.0
 40
8.0
 40
9.0
 40
9.0
 40
9.0
 40
10.0
 40
10.0
 40
10.0
 40
11.0
 40
11.0
 40
11.0
 40
12.0
 40
12.0
 40
12.0
 40
13.0
 40
13.0
 40
13.0
 40
13.0
 10
103.8396780814077
 20
225.5338649609777
 30
0.0
 10
102.5228549277113
 20
225.2280266092746
 30
0.0
 10
101.5383112335673
 20
224.9993368645944
 30
0.0
 10
100.6902148524859
 20
224.8023419983784
 30
0.0
 10
99.40071561235686
 20
225.445003029305
 30
0.0
 10
100.7647796378947
 20
226.6809956301787
 30
0.0
 10
99.18391144710073
 20
227.6109560927283
 30
0.0
 10
98.29927552202892
 20
227.8140014078903
 30
0.0
 10
96.76930861702947
 20
227.2143610068357
 30
0.0
 10
95.22590583963753
 20
227.1029121678879
 30
0.0
 10
94.25219266442524
 20
227.032610688142
 30
0.0
 10
93.40594802216718
 20
226.3999834978162
 30
0.0
 10
93.21928844240699
 20
225.480099939561
 30
0.0
 10
92.63962959516692
 20
222.623211444724
 30
0.0
 10
91.36696825922206
 20
219.9021243075462
 30
0.0
 10
91.25907217499339
 20
216.9005202704819
 30
0.0
 10
93.42325962698057
 20
215.880470560993
 30
0.0
 10
95.39437100886626
 20
216.207237867769
 30
0.0
 10
97.10292305108234
 20
216.585444756509
 30
0.0
 10
98.46319747158647
 20
217.3977767400842
 30
0.0
 10
98.11233602826054
 20
218.8665501365269
 30
0.0
 10
98.98982338020046
 20
219.6616135789822
 30
0.0
 10
100.0392425287011
 20
219.9689160962665
 30
0.0
 10
100.9949766118498
 20
219.7944866054789
 30
0.0
 10
101.8709136708213
 20
219.1967840706348
 30
0.0
 10
102.5050696222687
 20
214.9070157679421
 30
0.0
 10
101.5526945072182
 20
213.5182762459911
 30
0.0
 10
97.6484108574781
 20
212.6839171831571
 30
0.0
 10
94.2007530824611
 20
211.9471189180961
 30
0.0
 10
90.68852129894246
 20
212.4878481863529
 30
0.0
 10
87.38094971909443
 20
211.4654299737178
 30
0.0
 10
86.53373614373115
 20
214.6470402498864
 30
0.0
 10
87.89879063422106
 20
221.5114360679403
 30
0.0
 10
90.90041620313211
 20
230.2724646098581
 30
0.0
 10
95.44445408448307
 20
231.7083804081102
 30
0.0
 10
100.1957575229654
 20
232.2207091704605
 30
0.0
 10
105.2126347596669
 20
231.747460710021
 30
0.0
 10
105.4428102017752
 20
229.399455882049
 30
0.0
 10
104.6747046314919
 20
227.5618850139103
 30
0.0
 10
103.8396780814077
 20
225.5338649609777
 30
0.0
  0
ENDSEC
  0
SECTION
  2
OBJECTS
  0
DICTIONARY
  5
C
330
0
100
AcDbDictionary
281
     1
  3
ACAD_GROUP
350
D
  3
ACAD_LAYOUT
350
1A
  3
ACAD_MATERIAL
350
3B
  3
ACAD_MLEADERSTYLE
350
75
  3
ACAD_MLINESTYLE
350
17
  3
ACAD_PLOTSETTINGS
350
19
  3
ACAD_PLOTSTYLENAME
350
E
  3
ACAD_TABLESTYLE
350
74
  3
ACAD_VISUALSTYLE
350
2A
  0
SUN
  5
3F
330
29
100
AcDbSun
 90
        1
290
     0
 63
     7
421
 16777215
 40
1.0
291
     1
 91
  2455826
 92
 54000000
292
     0
 70
     2
 71
   256
280
     1
  0
DICTIONARY
  5
D
102
{ACAD_REACTORS
330
C
102
}
330
C
100
AcDbDictionary
281
     1
  0
DICTIONARY
  5
1A
102
{ACAD_REACTORS
330
C
102
}
330
C
100
AcDbDictionary
281
     1
  3
Layout1
350
1E
  3
Layout2
350
26
  3
Model
350
22
  0
DICTIONARY
  5
3B
102
{ACAD_REACTORS
330
C
102
}
330
C
100
AcDbDictionary
281
     1
  3
ByBlock
350
3D
  3
ByLayer
350
3C
  3
Global
350
3E
  0
DICTIONARY
  5
75
102
{ACAD_REACTORS
330
C
102
}
330
C
100
AcDbDictionary
281
     1
  0
DICTIONARY
  5
17
102
{ACAD_REACTORS
330
C
102
}
330
C
100
AcDbDictionary
281
     1
  3
Standard
350
18
  0
DICTIONARY
  5
19
102
{ACAD_REACTORS
330
C
102
}
330
C
100
AcDbDictionary
281
     1
  0
ACDBDICTIONARYWDFLT
  5
E
102
{ACAD_REACTORS
330
C
102
}
330
C
100
AcDbDictionary
281
     1
  3
Normal
350
F
100
AcDbDictionaryWithDefault
340
F
  0
DICTIONARY
  5
74
102
{ACAD_REACTORS
330
C
102
}
330
C
100
AcDbDictionary
281
     1
  0
DICTIONARY
  5
2A
102
{ACAD_REACTORS
330
C
102
}
330
C
100
AcDbDictionary
281
     1
  3
2dWireframe
350
2F
  3
3D Hidden
350
31
  3
3dWireframe
350
30
  3
Basic
350
32
  3
Brighten
350
36
  3
ColorChange
350
3A
  3
Conceptual
350
34
  3
Dim
350
35
  3
Facepattern
350
39
  3
Flat
350
2B
  3
FlatWithEdges
350
2C
  3
Gouraud
350
2D
  3
GouraudWithEdges
350
2E
  3
Linepattern
350
38
  3
Realistic
350
33
  3
Thicken
350
37
  0
LAYOUT
  5
1E
102
{ACAD_REACTORS
330
1A
102
}
330
1A
100
AcDbPlotSettings
  1

  2
none_device
  4

  6

 40
0.0
 41
0.0
 42
0.0
 43
0.0
 44
0.0
 45
0.0
 46
0.0
 47
0.0
 48
0.0
 49
0.0
140
0.0
141
0.0
142
1.0
143
1.0
 70
   688
 72
     0
 73
     0
 74
     5
  7

 75
    16
 76
     0
 77
     2
 78
   300
147
1.0
148
0.0
149
0.0
100
AcDbLayout
  1
Layout1
 70
     1
 71
     1
 10
0.0
 20
0.0
 11
12.0
 21
9.0
 12
0.0
 22
0.0
 32
0.0
 14
1.000000000000000E+20
 24
1.000000000000000E+20
 34
1.000000000000000E+20
 15
-1.000000000000000E+20
 25
-1.000000000000000E+20
 35
-1.000000000000000E+20
146
0.0
 13
0.0
 23
0.0
 33
0.0
 16
1.0
 26
0.0
 36
0.0
 17
0.0
 27
1.0
 37
0.0
 76
     0
330
1B
  0
LAYOUT
  5
26
102
{ACAD_REACTORS
330
1A
102
}
330
1A
100
AcDbPlotSettings
  1

  2
none_device
  4

  6

 40
0.0
 41
0.0
 42
0.0
 43
0.0
 44
0.0
 45
0.0
 46
0.0
 47
0.0
 48
0.0
 49
0.0
140
0.0
141
0.0
142
1.0
143
1.0
 70
   688
 72
     0
 73
     0
 74
     5
  7

 75
    16
 76
     0
 77
     2
 78
   300
147
1.0
148
0.0
149
0.0
100
AcDbLayout
  1
Layout2
 70
     1
 71
     2
 10
0.0
 20
0.0
 11
0.0
 21
0.0
 12
0.0
 22
0.0
 32
0.0
 14
0.0
 24
0.0
 34
0.0
 15
0.0
 25
0.0
 35
0.0
146
0.0
 13
0.0
 23
0.0
 33
0.0
 16
1.0
 26
0.0
 36
0.0
 17
0.0
 27
1.0
 37
0.0
 76
     0
330
23
  0
LAYOUT
  5
22
102
{ACAD_REACTORS
330
1A
102
}
330
1A
100
AcDbPlotSettings
  1

  2
none_device
  4

  6

 40
0.0
 41
0.0
 42
0.0
 43
0.0
 44
0.0
 45
0.0
 46
0.0
 47
0.0
 48
0.0
 49
0.0
140
0.0
141
0.0
142
1.0
143
1.0
 70
  1712
 72
     0
 73
     0
 74
     0
  7

 75
     0
 76
     0
 77
     2
 78
   300
147
1.0
148
0.0
149
0.0
100
AcDbLayout
  1
Model
 70
     1
 71
     0
 10
0.0
 20
0.0
 11
12.0
 21
9.0
 12
0.0
 22
0.0
 32
0.0
 14
1.000000000000000E+20
 24
1.000000000000000E+20
 34
1.000000000000000E+20
 15
-1.000000000000000E+20
 25
-1.000000000000000E+20
 35
-1.000000000000000E+20
146
0.0
 13
0.0
 23
0.0
 33
0.0
 16
1.0
 26
0.0
 36
0.0
 17
0.0
 27
1.0
 37
0.0
 76
     0
330
1F
331
29
  0
MATERIAL
  5
3D
102
{ACAD_REACTORS
330
3B
102
}
330
3B
100
AcDbMaterial
  1
ByBlock
 72
     1
 94
      127
  0
MATERIAL
  5
3C
102
{ACAD_REACTORS
330
3B
102
}
330
3B
100
AcDbMaterial
  1
ByLayer
 72
     1
 94
      127
  0
MATERIAL
  5
3E
102
{ACAD_REACTORS
330
3B
102
}
330
3B
100
AcDbMaterial
  1
Global
 72
     1
 94
      127
  0
MLINESTYLE
  5
18
102
{ACAD_REACTORS
330
17
102
}
330
17
100
AcDbMlineStyle
  2
Standard
 70
     0
  3

 62
   256
 51
90.0
 52
90.0
 71
     2
 49
0.5
 62
   256
  6
BYLAYER
 49
-0.5
 62
   256
  6
BYLAYER
  0
ACDBPLACEHOLDER
  5
F
102
{ACAD_REACTORS
330
E
102
}
330
E
  0
VISUALSTYLE
  5
2F
102
{ACAD_REACTORS
330
2A
102
}
330
2A
100
AcDbVisualStyle
  2
2dWireframe
 70
     4
177
     2
291
     0
 71
     0
176
     1
 72
     2
176
     1
 73
     0
176
     1
 90
        0
176
     1
 40
-0.6
176
     1
 41
-30.0
176
     1
 62
     5
 63
     7
421
 16777215
176
     1
 74
     1
176
     1
 91
        4
176
     1
 64
     7
176
     1
 65
   257
176
     1
 75
     1
176
     1
175
     1
176
     1
 42
1.0
176
     1
 92
        0
176
     1
 66
   257
176
     1
 43
1.0
176
     1
 76
     1
176
     1
 77
     6
176
     1
 78
     2
176
     1
 67
     7
176
     1
 79
     5
176
     1
170
     0
176
     1
171
     0
176
     1
290
     0
176
     1
 93
        1
176
     1
 44
0.0
176
     1
173
     0
176
     1
  0
VISUALSTYLE
  5
31
102
{ACAD_REACTORS
330
2A
102
}
330
2A
100
AcDbVisualStyle
  2
3D Hidden
 70
     6
177
     2
291
     0
 71
     1
176
     1
 72
     2
176
     1
 73
     2
176
     1
 90
        0
176
     1
 40
-0.6
176
     1
 41
-30.0
176
     1
 62
     5
 63
     7
421
 16777215
176
     1
 74
     2
176
     1
 91
        2
176
     1
 64
     7
176
     1
 65
   257
176
     1
 75
     2
176
     1
175
     1
176
     1
 42
40.0
176
     1
 92
        0
176
     1
 66
   257
176
     1
 43
1.0
176
     1
 76
     1
176
     1
 77
     6
176
     1
 78
     2
176
     1
 67
     7
176
     1
 79
     3
176
     1
170
     0
176
     1
171
     0
176
     1
290
     0
176
     1
 93
        1
176
     1
 44
0.0
176
     1
173
     0
176
     1
  0
VISUALSTYLE
  5
30
102
{ACAD_REACTORS
330
2A
102
}
330
2A
100
AcDbVisualStyle
  2
3dWireframe
 70
     5
177
     2
291
     0
 71
     0
176
     1
 72
     2
176
     1
 73
     0
176
     1
 90
        0
176
     1
 40
-0.6
176
     1
 41
-30.0
176
     1
 62
     5
 63
     7
421
 16777215
176
     1
 74
     1
176
     1
 91
        4
176
     1
 64
     7
176
     1
 65
   257
176
     1
 75
     1
176
     1
175
     1
176
     1
 42
1.0
176
     1
 92
        0
176
     1
 66
   257
176
     1
 43
1.0
176
     1
 76
     1
176
     1
 77
     6
176
     1
 78
     2
176
     1
 67
     7
176
     1
 79
     5
176
     1
170
     0
176
     1
171
     0
176
     1
290
     0
176
     1
 93
        1
176
     1
 44
0.0
176
     1
173
     0
176
     1
  0
VISUALSTYLE
  5
32
102
{ACAD_REACTORS
330
2A
102
}
330
2A
100
AcDbVisualStyle
  2
Basic
 70
     7
177
     2
291
     1
 71
     1
176
     1
 72
     0
176
     1
 73
     1
176
     1
 90
        0
176
     1
 40
-0.6
176
     1
 41
-30.0
176
     1
 62
     5
 63
     7
421
 16777215
176
     1
 74
     0
176
     1
 91
        4
176
     1
 64
     7
176
     1
 65
   257
176
     1
 75
     1
176
     1
175
     1
176
     1
 42
1.0
176
     1
 92
        8
176
     1
 66
     7
176
     1
 43
1.0
176
     1
 76
     1
176
     1
 77
     6
176
     1
 78
     2
176
     1
 67
     7
176
     1
 79
     5
176
     1
170
     0
176
     1
171
     0
176
     1
290
     0
176
     1
 93
        1
176
     1
 44
0.0
176
     1
173
     0
176
     1
  0
VISUALSTYLE
  5
36
102
{ACAD_REACTORS
330
2A
102
}
330
2A
100
AcDbVisualStyle
  2
Brighten
 70
    12
177
     2
291
     1
 71
     2
176
     1
 72
     2
176
     1
 73
     0
176
     1
 90
        0
176
     1
 40
-0.6
176
     1
 41
-30.0
176
     1
 62
     5
 63
     7
421
 16777215
176
     1
 74
     1
176
     1
 91
        4
176
     1
 64
     7
176
     1
 65
   257
176
     1
 75
     1
176
     1
175
     1
176
     1
 42
1.0
176
     1
 92
        8
176
     1
 66
     7
176
     1
 43
1.0
176
     1
 76
     1
176
     1
 77
     6
176
     1
 78
     2
176
     1
 67
     7
176
     1
 79
     5
176
     1
170
     0
176
     1
171
     0
176
     1
290
     0
176
     1
 93
        1
176
     1
 44
50.0
176
     1
173
     0
176
     1
  0
VISUALSTYLE
  5
3A
102
{ACAD_REACTORS
330
2A
102
}
330
2A
100
AcDbVisualStyle
  2
ColorChange
 70
    16
177
     2
291
     1
 71
     2
176
     1
 72
     2
176
     1
 73
     3
176
     1
 90
        0
176
     1
 40
-0.6
176
     1
 41
-30.0
176
     1
 62
     5
 63
     8
421
  8421504
176
     1
 74
     1
176
     1
 91
        4
176
     1
 64
     7
176
     1
 65
   257
176
     1
 75
     1
176
     1
175
     1
176
     1
 42
1.0
176
     1
 92
        8
176
     1
 66
     8
424
  8421504
176
     1
 43
1.0
176
     1
 76
     1
176
     1
 77
     6
176
     1
 78
     2
176
     1
 67
     7
176
     1
 79
     5
176
     1
170
     0
176
     1
171
     0
176
     1
290
     0
176
     1
 93
        1
176
     1
 44
0.0
176
     1
173
     0
176
     1
  0
VISUALSTYLE
  5
34
102
{ACAD_REACTORS
330
2A
102
}
330
2A
100
AcDbVisualStyle
  2
Conceptual
 70
     9
177
     2
291
     0
 71
     3
176
     1
 72
     2
176
     1
 73
     0
176
     1
 90
        0
176
     1
 40
-0.6
176
     1
 41
-30.0
176
     1
 62
     5
 63
     7
421
 16777215
176
     1
 74
     2
176
     1
 91
        2
176
     1
 64
     7
176
     1
 65
   257
176
     1
 75
     1
176
     1
175
     1
176
     1
 42
40.0
176
     1
 92
        8
176
     1
 66
     7
176
     1
 43
1.0
176
     1
 76
     1
176
     1
 77
     6
176
     1
 78
     2
176
     1
 67
     7
176
     1
 79
     3
176
     1
170
     0
176
     1
171
     0
176
     1
290
     0
176
     1
 93
        1
176
     1
 44
0.0
176
     1
173
     0
176
     1
  0
VISUALSTYLE
  5
35
102
{ACAD_REACTORS
330
2A
102
}
330
2A
100
AcDbVisualStyle
  2
Dim
 70
    11
177
     2
291
     1
 71
     2
176
     1
 72
     2
176
     1
 73
     0
176
     1
 90
        0
176
     1
 40
-0.6
176
     1
 41
-30.0
176
     1
 62
     5
 63
     7
421
 16777215
176
     1
 74
     1
176
     1
 91
        4
176
     1
 64
     7
176
     1
 65
   257
176
     1
 75
     1
176
     1
175
     1
176
     1
 42
1.0
176
     1
 92
        8
176
     1
 66
     7
176
     1
 43
1.0
176
     1
 76
     1
176
     1
 77
     6
176
     1
 78
     2
176
     1
 67
     7
176
     1
 79
     5
176
     1
170
     0
176
     1
171
     0
176
     1
290
     0
176
     1
 93
        1
176
     1
 44
-50.0
176
     1
173
     0
176
     1
  0
VISUALSTYLE
  5
39
102
{ACAD_REACTORS
330
2A
102
}
330
2A
100
AcDbVisualStyle
  2
Facepattern
 70
    15
177
     2
291
     1
 71
     2
176
     1
 72
     2
176
     1
 73
     0
176
     1
 90
        0
176
     1
 40
-0.6
176
     1
 41
-30.0
176
     1
 62
     5
 63
     7
421
 16777215
176
     1
 74
     1
176
     1
 91
        4
176
     1
 64
     7
176
     1
 65
   257
176
     1
 75
     1
176
     1
175
     1
176
     1
 42
1.0
176
     1
 92
        8
176
     1
 66
     7
176
     1
 43
1.0
176
     1
 76
     1
176
     1
 77
     6
176
     1
 78
     2
176
     1
 67
     7
176
     1
 79
     5
176
     1
170
     0
176
     1
171
     0
176
     1
290
     0
176
     1
 93
        1
176
     1
 44
0.0
176
     1
173
     0
176
     1
  0
VISUALSTYLE
  5
2B
102
{ACAD_REACTORS
330
2A
102
}
330
2A
100
AcDbVisualStyle
  2
Flat
 70
     0
177
     2
291
     1
 71
     2
176
     1
 72
     1
176
     1
 73
     1
176
     1
 90
        2
176
     1
 40
-0.6
176
     1
 41
30.0
176
     1
 62
     5
 63
     7
421
 16777215
176
     1
 74
     0
176
     1
 91
        4
176
     1
 64
     7
176
     1
 65
   257
176
     1
 75
     1
176
     1
175
     1
176
     1
 42
1.0
176
     1
 92
        8
176
     1
 66
     7
176
     1
 43
1.0
176
     1
 76
     1
176
     1
 77
     6
176
     1
 78
     2
176
     1
 67
     7
176
     1
 79
     5
176
     1
170
     0
176
     1
171
     0
176
     1
290
     0
176
     1
 93
       13
176
     1
 44
0.0
176
     1
173
     0
176
     1
  0
VISUALSTYLE
  5
2C
102
{ACAD_REACTORS
330
2A
102
}
330
2A
100
AcDbVisualStyle
  2
FlatWithEdges
 70
     1
177
     2
291
     1
 71
     2
176
     1
 72
     1
176
     1
 73
     1
176
     1
 90
        2
176
     1
 40
-0.6
176
     1
 41
30.0
176
     1
 62
     5
 63
     7
421
 16777215
176
     1
 74
     1
176
     1
 91
        4
176
     1
 64
     7
176
     1
 65
   257
176
     1
 75
     1
176
     1
175
     1
176
     1
 42
1.0
176
     1
 92
        0
176
     1
 66
   257
176
     1
 43
1.0
176
     1
 76
     1
176
     1
 77
     6
176
     1
 78
     2
176
     1
 67
     7
176
     1
 79
     5
176
     1
170
     0
176
     1
171
     0
176
     1
290
     0
176
     1
 93
       13
176
     1
 44
0.0
176
     1
173
     0
176
     1
  0
VISUALSTYLE
  5
2D
102
{ACAD_REACTORS
330
2A
102
}
330
2A
100
AcDbVisualStyle
  2
Gouraud
 70
     2
177
     2
291
     1
 71
     2
176
     1
 72
     2
176
     1
 73
     1
176
     1
 90
        2
176
     1
 40
-0.6
176
     1
 41
30.0
176
     1
 62
     5
 63
     7
421
 16777215
176
     1
 74
     0
176
     1
 91
        4
176
     1
 64
     7
176
     1
 65
   257
176
     1
 75
     1
176
     1
175
     1
176
     1
 42
1.0
176
     1
 92
        0
176
     1
 66
     7
176
     1
 43
1.0
176
     1
 76
     1
176
     1
 77
     6
176
     1
 78
     2
176
     1
 67
     7
176
     1
 79
     5
176
     1
170
     0
176
     1
171
     0
176
     1
290
     0
176
     1
 93
       13
176
     1
 44
0.0
176
     1
173
     0
176
     1
  0
VISUALSTYLE
  5
2E
102
{ACAD_REACTORS
330
2A
102
}
330
2A
100
AcDbVisualStyle
  2
GouraudWithEdges
 70
     3
177
     2
291
     1
 71
     2
176
     1
 72
     2
176
     1
 73
     1
176
     1
 90
        2
176
     1
 40
-0.6
176
     1
 41
30.0
176
     1
 62
     5
 63
     7
421
 16777215
176
     1
 74
     1
176
     1
 91
        4
176
     1
 64
     7
176
     1
 65
   257
176
     1
 75
     1
176
     1
175
     1
176
     1
 42
1.0
176
     1
 92
        0
176
     1
 66
   257
176
     1
 43
1.0
176
     1
 76
     1
176
     1
 77
     6
176
     1
 78
     2
176
     1
 67
     7
176
     1
 79
     5
176
     1
170
     0
176
     1
171
     0
176
     1
290
     0
176
     1
 93
       13
176
     1
 44
0.0
176
     1
173
     0
176
     1
  0
VISUALSTYLE
  5
38
102
{ACAD_REACTORS
330
2A
102
}
330
2A
100
AcDbVisualStyle
  2
Linepattern
 70
    14
177
     2
291
     1
 71
     2
176
     1
 72
     2
176
     1
 73
     0
176
     1
 90
        0
176
     1
 40
-0.6
176
     1
 41
-30.0
176
     1
 62
     5
 63
     7
421
 16777215
176
     1
 74
     1
176
     1
 91
        4
176
     1
 64
     7
176
     1
 65
   257
176
     1
 75
     7
176
     1
175
     7
176
     1
 42
1.0
176
     1
 92
        8
176
     1
 66
     7
176
     1
 43
1.0
176
     1
 76
     1
176
     1
 77
     6
176
     1
 78
     2
176
     1
 67
     7
176
     1
 79
     5
176
     1
170
     0
176
     1
171
     0
176
     1
290
     0
176
     1
 93
        1
176
     1
 44
0.0
176
     1
173
     0
176
     1
  0
VISUALSTYLE
  5
33
102
{ACAD_REACTORS
330
2A
102
}
330
2A
100
AcDbVisualStyle
  2
Realistic
 70
     8
177
     2
291
     0
 71
     2
176
     1
 72
     2
176
     1
 73
     0
176
     1
 90
        0
176
     1
 40
-0.6
176
     1
 41
-30.0
176
     1
 62
     5
 63
     7
421
 16777215
176
     1
 74
     1
176
     1
 91
        0
176
     1
 64
     7
176
     1
 65
   257
176
     1
 75
     1
176
     1
175
     1
176
     1
 42
1.0
176
     1
 92
        8
176
     1
 66
     8
424
  7895160
176
     1
 43
1.0
176
     1
 76
     1
176
     1
 77
     6
176
     1
 78
     2
176
     1
 67
     7
176
     1
 79
     5
176
     1
170
     0
176
     1
171
     0
176
     1
290
     0
176
     1
 93
       13
176
     1
 44
0.0
176
     1
173
     0
176
     1
  0
VISUALSTYLE
  5
37
102
{ACAD_REACTORS
330
2A
102
}
330
2A
100
AcDbVisualStyle
  2
Thicken
 70
    13
177
     2
291
     1
 71
     2
176
     1
 72
     2
176
     1
 73
     0
176
     1
 90
        0
176
     1
 40
-0.6
176
     1
 41
-30.0
176
     1
 62
     5
 63
     7
421
 16777215
176
     1
 74
     1
176
     1
 91
        4
176
     1
 64
     7
176
     1
 65
   257
176
     1
 75
     1
176
     1
175
     1
176
     1
 42
1.0
176
     1
 92
       12
176
     1
 66
     7
176
     1
 43
1.0
176
     1
 76
     1
176
     1
 77
     6
176
     1
 78
     2
176
     1
 67
     7
176
     1
 79
     5
176
     1
170
     0
176
     1
171
     0
176
     1
290
     0
176
     1
 93
        1
176
     1
 44
0.0
176
     1
173
     0
176
     1
  0
ENDSEC
  0
EOF
